<svg xmlns="http://www.w3.org/2000/svg" width="40" height="40" viewBox="0 0 40 40">
  <metadata><?xpacket begin="﻿" id="W5M0MpCehiHzreSzNTczkc9d"?>
<x:xmpmeta xmlns:x="adobe:ns:meta/" x:xmptk="Adobe XMP Core 5.6-c138 79.159824, 2016/09/14-01:09:01        ">
   <rdf:RDF xmlns:rdf="http://www.w3.org/1999/02/22-rdf-syntax-ns#">
      <rdf:Description rdf:about=""/>
   </rdf:RDF>
</x:xmpmeta>
                                                                                                    
                                                                                                    
                                                                                                    
                                                                                                    
                                                                                                    
                                                                                                    
                                                                                                    
                                                                                                    
                                                                                                    
                                                                                                    
                                                                                                    
                                                                                                    
                                                                                                    
                                                                                                    
                                                                                                    
                                                                                                    
                                                                                                    
                                                                                                    
                                                                                                    
                                                                                                    
                           
<?xpacket end="w"?></metadata>
<defs>
    <style>
      .cls-1 {
        fill: #002061;
        fill-rule: evenodd;
      }
    </style>
  </defs>
  <path class="cls-1" d="M1092,1953a20,20,0,0,0-4.31,39.53l1.64,0.29a19.892,19.892,0,0,0,5.34,0l1.63-.29A20,20,0,0,0,1092,1953Zm0,38.36a18.365,18.365,0,1,1,18.36-18.36A18.381,18.381,0,0,1,1092,1991.36Zm2.82-25.41a0.951,0.951,0,0,0-.35-0.08,4.22,4.22,0,0,0-.55-0.03,4.511,4.511,0,0,0-.58.03,1.068,1.068,0,0,0-.36.08,0.485,0.485,0,0,0-.19.13,0.3,0.3,0,0,0-.06.18v5.91c0,0.45,0,.92.01,1.41s0.03,0.97.05,1.43h-0.01l-0.36-.78c-0.13-.26-0.25-0.53-0.38-0.8s-0.27-.54-0.41-0.81-0.28-.54-0.42-0.82l-2.45-4.61a5.553,5.553,0,0,0-.37-0.63,1.493,1.493,0,0,0-.37-0.41,1.555,1.555,0,0,0-.45-0.21,2.8,2.8,0,0,0-.63-0.06h-1.37a1,1,0,0,0-.66.23,0.847,0.847,0,0,0-.27.69v11.32a0.345,0.345,0,0,0,.05.18,0.441,0.441,0,0,0,.18.13,1.209,1.209,0,0,0,.35.08,4.387,4.387,0,0,0,.56.03,4.511,4.511,0,0,0,.58-0.03,1.209,1.209,0,0,0,.35-0.08,0.485,0.485,0,0,0,.19-0.13,0.273,0.273,0,0,0,.05-0.18v-6.59c0-.49,0-0.97-0.02-1.44s-0.03-.93-0.05-1.4h0.01c0.15,0.39.32,0.78,0.51,1.19s0.37,0.78.56,1.13l3.13,5.89a8.73,8.73,0,0,0,.44.8,2.632,2.632,0,0,0,.4.49,1.133,1.133,0,0,0,.46.24,2.076,2.076,0,0,0,.59.07h1.09a1.5,1.5,0,0,0,.37-0.05,0.851,0.851,0,0,0,.31-0.17,0.864,0.864,0,0,0,.21-0.29,1.019,1.019,0,0,0,.08-0.4v-11.33a0.374,0.374,0,0,0-.05-0.18A0.4,0.4,0,0,0,1094.82,1965.95Zm5.98,14.37a0.241,0.241,0,0,0-.06-0.08,0.161,0.161,0,0,0-.09-0.03h-2.37l0.7-.72a12.416,12.416,0,0,0,.85-0.92,5.648,5.648,0,0,0,.5-0.73,2.207,2.207,0,0,0,.23-0.61,2.784,2.784,0,0,0,.06-0.58,1.681,1.681,0,0,0-.12-0.63,1.31,1.31,0,0,0-.34-0.5,1.68,1.68,0,0,0-.59-0.33,2.531,2.531,0,0,0-.82-0.12,2.622,2.622,0,0,0-.57.06,3.287,3.287,0,0,0-.5.14,3.1,3.1,0,0,0-.39.16,1.16,1.16,0,0,0-.21.15,0.217,0.217,0,0,0-.08.09,0.355,0.355,0,0,0-.04.09,0.507,0.507,0,0,0-.02.13,0.972,0.972,0,0,0-.01.18c0,0.1.01,0.19,0.01,0.27s0.02,0.13.03,0.17a0.237,0.237,0,0,0,.05.09,0.108,0.108,0,0,0,.07.03,0.319,0.319,0,0,0,.17-0.07,2.762,2.762,0,0,1,.27-0.16,1.786,1.786,0,0,1,.37-0.15,1.487,1.487,0,0,1,.49-0.07,1.159,1.159,0,0,1,.34.05,1,1,0,0,1,.24.16,0.722,0.722,0,0,1,.14.24,0.993,0.993,0,0,1,.05.3,1.5,1.5,0,0,1-.04.35,1.73,1.73,0,0,1-.15.41,3.829,3.829,0,0,1-.29.48,5.868,5.868,0,0,1-.51.6l-1.04,1.12a2.036,2.036,0,0,0-.15.17,0.7,0.7,0,0,0-.09.17,0.587,0.587,0,0,0-.06.2,2.012,2.012,0,0,0-.01.26,1.87,1.87,0,0,0,.02.27,0.3,0.3,0,0,0,.07.15,0.185,0.185,0,0,0,.12.07,0.5,0.5,0,0,0,.18.02h3.46a0.188,0.188,0,0,0,.08-0.02,0.146,0.146,0,0,0,.06-0.09,0.529,0.529,0,0,0,.04-0.16,1.552,1.552,0,0,0,.01-0.23c0-.08-0.01-0.16-0.01-0.22A0.6,0.6,0,0,0,1100.8,1980.32Z" transform="translate(-1072 -1953)"/>
</svg>
