<svg xmlns="http://www.w3.org/2000/svg" viewBox="0 0 40 40" width="40" height="40">
  <defs>
    <style>
      .a {
        fill: #002061;
      }
    </style>
  </defs>
  <title>i-dav</title>
  <path class="a" d="M20,0a20,20,0,0,0-4.31,39.53l1.63.29a20,20,0,0,0,5.34,0l1.63-.29A20,20,0,0,0,20,0Zm0,38.36A18.36,18.36,0,1,1,38.36,20,18.39,18.39,0,0,1,20,38.36Zm3.49-27.09a.82.82,0,0,0-1.06.46L20.48,16.6a3.44,3.44,0,1,0,1.52.61l1.95-4.87A.82.82,0,0,0,23.49,11.27ZM20,21.8A1.8,1.8,0,1,1,21.8,20,1.8,1.8,0,0,1,20,21.8Zm9.21-11A13,13,0,0,0,10.79,29.21a.82.82,0,0,0,1.16,0l1.91-1.91a.82.82,0,0,0-1.16-1.16l-1.31,1.31a11.34,11.34,0,0,1-2.74-6.64h1.76a.82.82,0,0,0,0-1.63H8.64a11.34,11.34,0,0,1,2.74-6.64l1.31,1.31a.82.82,0,0,0,1.16-1.16l-1.31-1.31a11.35,11.35,0,0,1,6.64-2.74v1.76a.82.82,0,0,0,1.64,0V8.64a11.34,11.34,0,0,1,6.64,2.74L26.14,12.7a.82.82,0,0,0,1.16,1.16l1.31-1.31a11.34,11.34,0,0,1,2.74,6.64H29.59a.82.82,0,0,0,0,1.63h1.76a11.34,11.34,0,0,1-2.74,6.64L27.3,26.14a.82.82,0,0,0-1.16,1.16l1.91,1.91a.82.82,0,0,0,1.16,0A13,13,0,0,0,29.21,10.79Zm-7.47,18H18.26a.82.82,0,0,0,0,1.63h3.49a.82.82,0,0,0,0-1.63Z"/>
</svg>
