<svg xmlns="http://www.w3.org/2000/svg" viewBox="0 0 40 40" width="40" height="40">
  <defs>
    <style>
      .a {
        fill: #002061;
      }
    </style>
  </defs>
  <title>i-proiz</title>
  <path class="a" d="M20,0a20,20,0,0,0-4.31,39.53l1.63.29a20,20,0,0,0,5.34,0l1.63-.29A20,20,0,0,0,20,0Zm0,38.36A18.36,18.36,0,1,1,38.36,20,18.39,18.39,0,0,1,20,38.36Zm5.31-23.15A.77.77,0,0,0,25,15a1.35,1.35,0,0,0-.45-.07H22.83a2.47,2.47,0,0,0-.63.07,1.16,1.16,0,0,0-.47.25,1.61,1.61,0,0,0-.35.46,4,4,0,0,0-.28.69l-2.82,7.49h0L15.5,16.4a3.2,3.2,0,0,0-.27-.69,1.38,1.38,0,0,0-.39-.45,1.5,1.5,0,0,0-.56-.24,3.53,3.53,0,0,0-.77-.07H11.84a1,1,0,0,0-.7.26,1,1,0,0,0-.26.76V27.2a.3.3,0,0,0,.05.18.37.37,0,0,0,.19.13,1.9,1.9,0,0,0,.37.08,5.89,5.89,0,0,0,1.17,0A2,2,0,0,0,13,27.5a.38.38,0,0,0,.2-.13.3.3,0,0,0,.05-.18V16.94h0l3.53,10.25a.37.37,0,0,0,.12.19.72.72,0,0,0,.24.13,1.72,1.72,0,0,0,.38.08l.57,0h.56a1.59,1.59,0,0,0,.38-.06.62.62,0,0,0,.24-.13.47.47,0,0,0,.13-.21l3.65-10.25h0V27.2a.28.28,0,0,0,.06.18.4.4,0,0,0,.19.13,1.79,1.79,0,0,0,.37.08,4.87,4.87,0,0,0,.58,0,5,5,0,0,0,.59,0,1.89,1.89,0,0,0,.38-.08.38.38,0,0,0,.19-.13.3.3,0,0,0,.05-.18V16a1.37,1.37,0,0,0-.06-.43A.88.88,0,0,0,25.31,15.21Zm5.82,1.21a1.5,1.5,0,0,0-.44-.32,1.79,1.79,0,0,0-.59-.17h0a1.57,1.57,0,0,0,.48-.2,1.28,1.28,0,0,0,.35-.33,1.43,1.43,0,0,0,.21-.44,1.86,1.86,0,0,0,.07-.53,1.68,1.68,0,0,0-.12-.66,1.28,1.28,0,0,0-.36-.49,1.64,1.64,0,0,0-.59-.31,2.76,2.76,0,0,0-.8-.11,3.22,3.22,0,0,0-.64.06,3.28,3.28,0,0,0-.52.15,2.29,2.29,0,0,0-.38.18l-.2.14-.07.08a.43.43,0,0,0,0,.09.67.67,0,0,0,0,.13c0,.05,0,.12,0,.2s0,.18,0,.24a.54.54,0,0,0,0,.14.13.13,0,0,0,0,.07l.07,0a.41.41,0,0,0,.18-.08l.3-.17a3,3,0,0,1,.4-.16,1.47,1.47,0,0,1,.47-.07,1.11,1.11,0,0,1,.38.06.72.72,0,0,1,.27.16.68.68,0,0,1,.16.25.85.85,0,0,1,.05.3.91.91,0,0,1-.08.38.79.79,0,0,1-.22.29,1,1,0,0,1-.36.19,1.73,1.73,0,0,1-.5.07h-.54l-.1,0a.15.15,0,0,0-.07.07.4.4,0,0,0,0,.14,1.76,1.76,0,0,0,0,.23,2,2,0,0,0,0,.24.42.42,0,0,0,0,.15.14.14,0,0,0,.07.07l.11,0h.54a2.33,2.33,0,0,1,.59.07,1.23,1.23,0,0,1,.42.19A.8.8,0,0,1,30,17a.95.95,0,0,1,0,.75.71.71,0,0,1-.21.27,1,1,0,0,1-.34.18,1.57,1.57,0,0,1-.47.06,2.18,2.18,0,0,1-.56-.07A3.5,3.5,0,0,1,28,18.1l-.3-.14a.43.43,0,0,0-.17-.06.12.12,0,0,0-.12.09.9.9,0,0,0,0,.32c0,.09,0,.17,0,.24a1,1,0,0,0,0,.16.7.7,0,0,0,0,.11.25.25,0,0,0,.06.09l.18.11a2.26,2.26,0,0,0,.35.14,3.56,3.56,0,0,0,.49.11,3.69,3.69,0,0,0,.6,0,3.5,3.5,0,0,0,1-.13,2.23,2.23,0,0,0,.76-.37,1.71,1.71,0,0,0,.5-.61,1.84,1.84,0,0,0,.18-.83,1.4,1.4,0,0,0-.1-.52A1.36,1.36,0,0,0,31.13,16.42Z"/>
</svg>
