<svg xmlns="http://www.w3.org/2000/svg" width="56.969" height="41" viewBox="0 0 56.969 41">
  <metadata><?xpacket begin="﻿" id="W5M0MpCehiHzreSzNTczkc9d"?>
<x:xmpmeta xmlns:x="adobe:ns:meta/" x:xmptk="Adobe XMP Core 5.6-c138 79.159824, 2016/09/14-01:09:01        ">
   <rdf:RDF xmlns:rdf="http://www.w3.org/1999/02/22-rdf-syntax-ns#">
      <rdf:Description rdf:about=""/>
   </rdf:RDF>
</x:xmpmeta>
                                                                                                    
                                                                                                    
                                                                                                    
                                                                                                    
                                                                                                    
                                                                                                    
                                                                                                    
                                                                                                    
                                                                                                    
                                                                                                    
                                                                                                    
                                                                                                    
                                                                                                    
                                                                                                    
                                                                                                    
                                                                                                    
                                                                                                    
                                                                                                    
                                                                                                    
                                                                                                    
                           
<?xpacket end="w"?></metadata>
<defs>
    <style>
      .cls-1 {
        fill: #113173;
        fill-rule: evenodd;
      }
    </style>
  </defs>
  <path id="i1" class="cls-1" d="M433.643,1407.62L423.1,1397.1a1.122,1.122,0,0,0-1.574,0,1.108,1.108,0,0,0,0,1.57l9.758,9.74-5.7,5.69a0.44,0.44,0,0,1-.634,0l-11.266-11.24a0.444,0.444,0,0,1,0-.63l3.829-3.82a1.112,1.112,0,0,0-1.575-1.57l-3.829,3.82a2.663,2.663,0,0,0-.567,2.93l-1.3,1.29h-9.054l-1.634-1.63a2.7,2.7,0,0,0,.1-0.71,2.667,2.667,0,0,0-.784-1.89l-3.725-3.71a1.112,1.112,0,1,0-1.574,1.57l3.725,3.72a0.428,0.428,0,0,1,.132.31,0.458,0.458,0,0,1-.132.32l-0.31.31-10.96,10.93a0.094,0.094,0,0,1-.01.01,0.447,0.447,0,0,1-.62-0.01l-5.7-5.69,9.889-9.87a1.112,1.112,0,0,0-1.574-1.57l-10.677,10.65a1.109,1.109,0,0,0,0,1.57l6.493,6.48a2.661,2.661,0,0,0,2.818.61l3.654,3.65a3.789,3.789,0,0,0,3.36,5.57h0.014a3.808,3.808,0,0,0,3.79,3.8v0.01a3.813,3.813,0,0,0,5.591,3.35l1.361,1.35a3.377,3.377,0,0,0,5.762-2.24,3.433,3.433,0,0,0,3.267-3.47v-0.01a3.738,3.738,0,0,0,3.5-3.73,3.629,3.629,0,0,0,3.141-5.26l3.651-3.33a2.681,2.681,0,0,0,3.421-.3l6.492-6.48A1.108,1.108,0,0,0,433.643,1407.62Zm-22.942-.52a1.1,1.1,0,0,0,.787-0.32l1.483-1.48,9.151,9.13-3.49,3.18-6.78-6.67s0,0,0-.01h-0.009a1.136,1.136,0,0,0-.913-0.32l-4.845-.05a1.1,1.1,0,0,0-.8.33l-4.058,4.04a1.329,1.329,0,0,1-1.881,0,1.316,1.316,0,0,1,0-1.87l5.967-5.96H410.7Zm-18.632,14.61a1.579,1.579,0,1,1,1.579,1.57A1.582,1.582,0,0,1,392.069,1421.71Zm5.4,5.37a1.575,1.575,0,1,1,1.578-1.58,1.562,1.562,0,0,1-.4,1.05c-0.045.04-.09,0.09-0.133,0.13A1.553,1.553,0,0,1,397.466,1427.08Zm2.212,2.23a1.558,1.558,0,0,1,.4-1.05c0.045-.04.089-0.09,0.133-0.13a1.553,1.553,0,0,1,1.043-.4,1.582,1.582,0,0,1,1.578,1.58,1.557,1.557,0,0,1-.447,1.09c0,0.01-.011.01-0.016,0.02s-0.01.01-.015,0.01a1.563,1.563,0,0,1-1.1.45A1.58,1.58,0,0,1,399.678,1429.31Zm18.15-7.38a1.418,1.418,0,0,1-1.995,0l-2.312-2.31a1.122,1.122,0,0,0-1.574,0,1.108,1.108,0,0,0,0,1.57l2.312,2.31h0l0.007,0.01a1.507,1.507,0,0,1-1.015,2.57,1.518,1.518,0,0,1-1.091-.41l-2.226-2.11a1.115,1.115,0,0,0-1.531,1.62l2.424,2.29a1.2,1.2,0,0,1,.024,1.73,1.2,1.2,0,0,1-1.716,0l-1.124-1.12a1.122,1.122,0,0,0-1.574,0,1.109,1.109,0,0,0-.326.79,1.087,1.087,0,0,0,.326.78l1.168,1.17a1.136,1.136,0,0,1,.337.81,1.119,1.119,0,0,1-.337.81,1.143,1.143,0,0,1-1.627,0l-1.362-1.36a3.729,3.729,0,0,0,.445-1.77,3.809,3.809,0,0,0-3.791-3.8v-0.01a3.8,3.8,0,0,0-3.8-3.79h-0.014a3.81,3.81,0,0,0-3.805-3.8,3.721,3.721,0,0,0-1.786.45l-3.479-3.47,9.841-9.82,1.714,1.71a1.1,1.1,0,0,0,.787.32h1.441l-4.394,4.39a3.553,3.553,0,0,0,5.03,5.02l3.727-3.72,4.08,0.04,7.213,7.1a1.408,1.408,0,0,1,.42,1A1.393,1.393,0,0,1,417.828,1421.93Zm7.945-14.12a1.11,1.11,0,1,1-1.111,1.11A1.113,1.113,0,0,1,425.773,1407.81Zm-40.692.11a1.11,1.11,0,1,1-1.111,1.11A1.113,1.113,0,0,1,385.081,1407.92Zm6.5-13.83a1.11,1.11,0,1,1-1.111,1.11A1.106,1.106,0,0,1,391.581,1394.09Zm27.785-.09a1.11,1.11,0,1,1-1.111,1.11A1.112,1.112,0,0,1,419.366,1394Z" transform="translate(-377 -1394)"/>
</svg>
