<svg xmlns="http://www.w3.org/2000/svg" width="43" height="52" viewBox="0 0 43 52">
  <metadata><?xpacket begin="﻿" id="W5M0MpCehiHzreSzNTczkc9d"?>
<x:xmpmeta xmlns:x="adobe:ns:meta/" x:xmptk="Adobe XMP Core 5.6-c138 79.159824, 2016/09/14-01:09:01        ">
   <rdf:RDF xmlns:rdf="http://www.w3.org/1999/02/22-rdf-syntax-ns#">
      <rdf:Description rdf:about=""/>
   </rdf:RDF>
</x:xmpmeta>
                                                                                                    
                                                                                                    
                                                                                                    
                                                                                                    
                                                                                                    
                                                                                                    
                                                                                                    
                                                                                                    
                                                                                                    
                                                                                                    
                                                                                                    
                                                                                                    
                                                                                                    
                                                                                                    
                                                                                                    
                                                                                                    
                                                                                                    
                                                                                                    
                                                                                                    
                                                                                                    
                           
<?xpacket end="w"?></metadata>
<defs>
    <style>
      .cls-1 {
        fill: #113173;
        fill-rule: evenodd;
      }
    </style>
  </defs>
  <path id="i2" class="cls-1" d="M390.531,1488.13a3.894,3.894,0,0,1-.222-1.29,4.324,4.324,0,0,1,3.083-4.02c0.041-.01.081-0.01,0.122-0.02a0.942,0.942,0,0,1,.258-0.07,0.046,0.046,0,0,1,.034-0.01c0.726-.17,2.629-0.48,3.62.73a1.357,1.357,0,0,0,1.043.49,1.422,1.422,0,0,0,.874-0.3,1.353,1.353,0,0,0,.192-1.91,4.882,4.882,0,0,0-1.842-1.38s0-.01,0-0.01-0.024-.01-0.035-0.01a4.716,4.716,0,0,1,4.318-2.63,4.827,4.827,0,0,1,3.7,1.65,1.372,1.372,0,0,0,1.92.16,1.339,1.339,0,0,0,.159-1.9,7.551,7.551,0,0,0-5.776-2.61,7.385,7.385,0,0,0-7.053,4.85c-0.054,0-.106.01-0.16,0.01H394.7a7.2,7.2,0,0,0-7.119,6.98,6.564,6.564,0,0,0,.133,1.29h2.813Zm25.51,20.88v-6.21l-10.923,6.2v-6.2l-10.957,6.21v-18.48h-10.17V1527h2.724v-33.76h4.722v20.43l10.957-6.21v6.17l10.922-6.17v6.21l10.944-6.21V1527h2.724L427,1502.8Zm0.748,10.09h4.622v-2.7h-4.622v2.7Zm-10.975,0h4.621v-2.7h-4.621v2.7Zm-10.976,0h4.622v-2.7h-4.622v2.7Z" transform="translate(-384 -1475)"/>
</svg>
