<svg xmlns="http://www.w3.org/2000/svg" width="44" height="48" viewBox="0 0 44 48">
  <metadata><?xpacket begin="﻿" id="W5M0MpCehiHzreSzNTczkc9d"?>
<x:xmpmeta xmlns:x="adobe:ns:meta/" x:xmptk="Adobe XMP Core 5.6-c138 79.159824, 2016/09/14-01:09:01        ">
   <rdf:RDF xmlns:rdf="http://www.w3.org/1999/02/22-rdf-syntax-ns#">
      <rdf:Description rdf:about=""/>
   </rdf:RDF>
</x:xmpmeta>
                                                                                                    
                                                                                                    
                                                                                                    
                                                                                                    
                                                                                                    
                                                                                                    
                                                                                                    
                                                                                                    
                                                                                                    
                                                                                                    
                                                                                                    
                                                                                                    
                                                                                                    
                                                                                                    
                                                                                                    
                                                                                                    
                                                                                                    
                                                                                                    
                                                                                                    
                                                                                                    
                           
<?xpacket end="w"?></metadata>
<defs>
    <style>
      .cls-1 {
        fill: #113173;
        fill-rule: evenodd;
      }
    </style>
  </defs>
  <path id="i3" class="cls-1" d="M421.536,1607.27h-4.409v2.71h4.409a2.778,2.778,0,0,1,2.766,2.78v7.65a2.778,2.778,0,0,1-2.766,2.78h-1.218l0,11.81h2.7v-9.31a5.5,5.5,0,0,0,3.99-5.28v-7.65A5.493,5.493,0,0,0,421.536,1607.27Zm-33.072,2.71h4.345v-2.71h-4.345a5.493,5.493,0,0,0-5.465,5.49v7.65a5.5,5.5,0,0,0,3.99,5.28V1635h2.7l0-11.81h-1.218a2.778,2.778,0,0,1-2.766-2.78v-7.65A2.778,2.778,0,0,1,388.464,1609.98Zm25.947-2.71a5.394,5.394,0,0,0-.369-1.68,5.492,5.492,0,0,0-2.285-2.7,5.344,5.344,0,0,0-2.794-.79h-7.991a5.347,5.347,0,0,0-2.794.79,5.5,5.5,0,0,0-2.285,2.7,5.394,5.394,0,0,0-.369,1.68c-0.006.11-.017,0.22-0.017,0.32v10.49a5.448,5.448,0,0,0,.386,2.01,5.521,5.521,0,0,0,2.134,2.61l0.151,0.09a5.581,5.581,0,0,0,1.316.58V1635h2.7l0-14.14h-1.225a2.693,2.693,0,0,1-1.742-.64,2.761,2.761,0,0,1-1.024-2.14v-10.49c0-.01,0-0.02,0-0.03a2.782,2.782,0,0,1,2.763-2.75h7.991a2.782,2.782,0,0,1,2.765,2.78h0v10.49a2.768,2.768,0,0,1-.959,2.09,2.709,2.709,0,0,1-1.807.69h-1.226l0,14.14h2.7v-11.64a5.178,5.178,0,0,0,1.319-.57c0.063-.04.127-0.07,0.188-0.11a5.557,5.557,0,0,0,2.1-2.59,5.448,5.448,0,0,0,.386-2.01v-10.49C414.428,1607.49,414.418,1607.38,414.411,1607.27Zm-9.444-7.5a6.385,6.385,0,1,0-6.353-6.38A6.368,6.368,0,0,0,404.967,1599.77Zm0-10.06a3.675,3.675,0,1,1-3.654,3.68A3.67,3.67,0,0,1,404.967,1589.71Zm14.647,15.23a6.385,6.385,0,1,0-6.352-6.38A6.368,6.368,0,0,0,419.614,1604.94Zm0-10.06a3.675,3.675,0,1,1-3.653,3.68A3.671,3.671,0,0,1,419.614,1594.88Zm-29.229,10.06a6.385,6.385,0,1,0-6.352-6.38A6.369,6.369,0,0,0,390.385,1604.94Zm0-10.06a3.675,3.675,0,1,1-3.653,3.68A3.671,3.671,0,0,1,390.385,1594.88Z" transform="translate(-383 -1587)"/>
</svg>
