<svg xmlns="http://www.w3.org/2000/svg" width="43" height="39" viewBox="0 0 43 39">
  <metadata><?xpacket begin="﻿" id="W5M0MpCehiHzreSzNTczkc9d"?>
<x:xmpmeta xmlns:x="adobe:ns:meta/" x:xmptk="Adobe XMP Core 5.6-c138 79.159824, 2016/09/14-01:09:01        ">
   <rdf:RDF xmlns:rdf="http://www.w3.org/1999/02/22-rdf-syntax-ns#">
      <rdf:Description rdf:about=""/>
   </rdf:RDF>
</x:xmpmeta>
                                                                                                    
                                                                                                    
                                                                                                    
                                                                                                    
                                                                                                    
                                                                                                    
                                                                                                    
                                                                                                    
                                                                                                    
                                                                                                    
                                                                                                    
                                                                                                    
                                                                                                    
                                                                                                    
                                                                                                    
                                                                                                    
                                                                                                    
                                                                                                    
                                                                                                    
                                                                                                    
                           
<?xpacket end="w"?></metadata>
<defs>
    <style>
      .cls-1 {
        fill: #113173;
        fill-rule: evenodd;
      }
    </style>
  </defs>
  <path id="i4" class="cls-1" d="M399.946,1692.56a1.079,1.079,0,0,1,1.059-1.07H410a1.078,1.078,0,0,1,1.058,1.07v1.98h2.469v-1.98a3.561,3.561,0,0,0-3.527-3.57h-8.992a3.561,3.561,0,0,0-3.528,3.57v1.98h2.469v-1.98Zm24.584,31.88a1.079,1.079,0,0,1-1.059,1.07H387.529a1.079,1.079,0,0,1-1.059-1.07v-10.72H384v10.72a3.561,3.561,0,0,0,3.528,3.57h35.942a3.561,3.561,0,0,0,3.528-3.57v-10.72H424.53v10.72Zm-1.059-27.13H387.529a3.561,3.561,0,0,0-3.528,3.57v9.99h2.469v-0.01h15.149v4.44h7.762v-4.44H424.53v0.01H427v-9.99A3.561,3.561,0,0,0,423.471,1697.31Zm-16.56,15.49h-2.822v-6.42h2.822v6.42Zm2.47-4.44v-4.47h-7.762v4.47H386.47v-7.48a1.079,1.079,0,0,1,1.059-1.07h35.942a1.079,1.079,0,0,1,1.059,1.07v7.48H409.381Z" transform="translate(-384 -1689)"/>
</svg>
