<svg xmlns="http://www.w3.org/2000/svg" width="32" height="50" viewBox="0 0 32 50">
  <metadata><?xpacket begin="﻿" id="W5M0MpCehiHzreSzNTczkc9d"?>
<x:xmpmeta xmlns:x="adobe:ns:meta/" x:xmptk="Adobe XMP Core 5.6-c138 79.159824, 2016/09/14-01:09:01        ">
   <rdf:RDF xmlns:rdf="http://www.w3.org/1999/02/22-rdf-syntax-ns#">
      <rdf:Description rdf:about=""/>
   </rdf:RDF>
</x:xmpmeta>
                                                                                                    
                                                                                                    
                                                                                                    
                                                                                                    
                                                                                                    
                                                                                                    
                                                                                                    
                                                                                                    
                                                                                                    
                                                                                                    
                                                                                                    
                                                                                                    
                                                                                                    
                                                                                                    
                                                                                                    
                                                                                                    
                                                                                                    
                                                                                                    
                                                                                                    
                                                                                                    
                           
<?xpacket end="w"?></metadata>
<defs>
    <style>
      .cls-1 {
        fill: #113173;
        fill-rule: evenodd;
      }
    </style>
  </defs>
  <path id="i5" class="cls-1" d="M420.994,1801.12h-4.842l-4.069-13.42a8.07,8.07,0,0,0,.719-3.33,7.808,7.808,0,1,0-15.612,0,8.178,8.178,0,0,0,.717,3.34l-4.068,13.41H389v2.3h4.143l-2.178,7.18a5.528,5.528,0,0,0,2.468,6.37l-0.467,1.54a1.16,1.16,0,0,0,.74,1.44,1.293,1.293,0,0,0,.334.05,1.131,1.131,0,0,0,1.073-.81l4.782-15.77h2.026v-2.3h-1.328l2.714-8.95a7.249,7.249,0,0,0,3.382,0l2.714,8.95H406.12v-1.88a1.124,1.124,0,1,0-2.248,0v6.37a1.124,1.124,0,1,0,2.248,0v-2.19h3.98l4.781,15.77a1.133,1.133,0,0,0,1.073.81,1.287,1.287,0,0,0,.334-0.05,1.159,1.159,0,0,0,.74-1.44l-0.467-1.54a5.524,5.524,0,0,0,2.467-6.37l-2.177-7.18h4.143v-2.3Zm-26.87,13.56a3.2,3.2,0,0,1-1.014-3.39l6.431-21.21a7.551,7.551,0,0,0,1.657,1.27ZM405,1790.06a5.471,5.471,0,0,1-3.93-1.66,5.748,5.748,0,0,1-1.627-4.03A5.56,5.56,0,1,1,405,1790.06Zm11.887,21.23a3.2,3.2,0,0,1-1.015,3.39l-3.457-11.4-3.618-11.93a8.118,8.118,0,0,0,1.658-1.27Zm-12.849-39.32h1.927v2.54a8.956,8.956,0,0,1,1.926.39v-3.91a0.975,0.975,0,0,0-.963-0.99h-3.854a0.975,0.975,0,0,0-.963.99v3.91a8.956,8.956,0,0,1,1.926-.39v-2.54Zm0.674,10.98a1.431,1.431,0,0,0-1.087,1.7,1.412,1.412,0,0,0,1.665,1.12,1.441,1.441,0,0,0,1.087-1.71A1.4,1.4,0,0,0,404.707,1782.95Z" transform="translate(-389 -1770)"/>
</svg>
