<svg xmlns="http://www.w3.org/2000/svg" width="20.031" height="12" viewBox="0 0 20.031 12">
  <defs>
    <style>
      .cls-1 {
        fill: #cad0dd;
        fill-rule: evenodd;
      }
    </style>
  </defs>
  <path class="cls-1" d="M387,951c-3.821,0-7.286,2.1-9.843,5.522a0.8,0.8,0,0,0,0,.952C379.713,960.9,383.178,963,387,963s7.286-2.105,9.843-5.522a0.8,0.8,0,0,0,0-.952C394.285,953.1,390.82,951,387,951h0Zm0.274,10.225a4.234,4.234,0,1,1,3.924-3.949,4.222,4.222,0,0,1-3.924,3.949h0Zm-0.126-1.952a2.28,2.28,0,1,1,2.115-2.129,2.269,2.269,0,0,1-2.115,2.129h0Zm0,0" transform="translate(-377 -951)"/>
</svg>
