<svg xmlns="http://www.w3.org/2000/svg" xmlns:xlink="http://www.w3.org/1999/xlink" viewBox="0 0 246.77 36.07">
  <defs>
    <style>
      .cls-1 {
        fill: #1c7cbf;
      }

      .cls-1, .cls-2, .cls-3, .cls-4, .cls-5 {
        fill-rule: evenodd;
      }

      .cls-2 {
        fill: #dedfe0;
      }

      .cls-3 {
        fill: url(#GradientFill_1);
      }

      .cls-4 {
        fill: url(#GradientFill_2);
      }

      .cls-5 {
        fill: #b90342;
      }
    </style>
    <linearGradient id="GradientFill_1" data-name="GradientFill 1" x1="29.04" y1="-1.32" x2="-1.55" y2="34.75" gradientUnits="userSpaceOnUse">
      <stop offset="0" stop-color="#30bdee"/>
      <stop offset="1" stop-color="#187dc1"/>
    </linearGradient>
    <linearGradient id="GradientFill_2" data-name="GradientFill 2" x1="14.64" y1="38.96" x2="43.69" y2="0.66" gradientUnits="userSpaceOnUse">
      <stop offset="0" stop-color="#e5340d"/>
      <stop offset="1" stop-color="#eb6801"/>
    </linearGradient>
  </defs>
  <title>logo</title>
  <g id="Layer_2" data-name="Layer 2">
    <g id="_1" data-name="1">
      <g>
        <g>
          <path class="cls-1" d="M114.08,28.55l1.75-9.39a1.39,1.39,0,0,0-1.42-1.77h-5.92a2.9,2.9,0,0,0-2.66,2.26l-1.66,8.9h-2.8l1.75-9.39a5.66,5.66,0,0,1,5.36-4.53h5.92a4.14,4.14,0,0,1,4.13,5l-1.66,8.9Z"/>
          <path class="cls-1" d="M85.89,20.21H96.72l.19-1a1.39,1.39,0,0,0-1.42-1.77H88.65A2.89,2.89,0,0,0,86,19.64l-.1.56Zm12,2.76H85.39l-.19,1a1.39,1.39,0,0,0,1.42,1.77h6.84a2.55,2.55,0,0,0,1.36-.43l2,2a5.38,5.38,0,0,1-3.33,1.22H86.62a4.14,4.14,0,0,1-4.13-5l.79-4.37a5.64,5.64,0,0,1,5.36-4.53h6.84a4.14,4.14,0,0,1,4.13,5l-.38,2.07A1.38,1.38,0,0,1,97.87,23Z"/>
          <path class="cls-1" d="M69.22,20.21h9.35A1.41,1.41,0,0,1,79.9,22l-.13.7a7.36,7.36,0,0,1-7,5.9H65.35a5.26,5.26,0,0,1-5.25-6.38l.91-5a7.36,7.36,0,0,1,7-5.9h6.53a5.22,5.22,0,0,1,5.28,4.37l-2.68,1.07A2.46,2.46,0,0,0,74.51,14H68a4.61,4.61,0,0,0-4.27,3.62l-.91,5a2.5,2.5,0,0,0,2.54,3.14H72.8a4.64,4.64,0,0,0,4-2.82H68.7Z"/>
          <path class="cls-1" d="M152.06,17.39h-4.59a2.66,2.66,0,0,0-1.68.67,2.82,2.82,0,0,0-1,1.6l-1.66,8.9h-2.8l1.75-9.39A5.6,5.6,0,0,1,144,16a5.42,5.42,0,0,1,3.46-1.32h5.11Z"/>
          <path class="cls-1" d="M125,20.21h10.83l.19-1a1.39,1.39,0,0,0-1.42-1.77h-6.84a2.89,2.89,0,0,0-2.66,2.26l-.1.56ZM137,23H124.48l-.19,1a1.39,1.39,0,0,0,1.42,1.77h6.84a2.55,2.55,0,0,0,1.36-.43l2,2a5.38,5.38,0,0,1-3.33,1.22h-6.84a4.14,4.14,0,0,1-4.13-5l.79-4.37a5.64,5.64,0,0,1,5.36-4.53h6.84a4.14,4.14,0,0,1,4.13,5l-.38,2.07A1.38,1.38,0,0,1,137,23Z"/>
          <path class="cls-1" d="M166.71,23H155.85l-.19,1a1.39,1.39,0,0,0,1.42,1.77h9.09l.53-2.82Zm-12-2.76h12.5l.19-1A1.39,1.39,0,0,0,166,17.39h-6.84a2.55,2.55,0,0,0-1.36.43l-2-2a5.38,5.38,0,0,1,3.33-1.22H166a4.14,4.14,0,0,1,4.13,5l-1.63,8.9H157.09a4.14,4.14,0,0,1-4.13-5l.38-2.07A1.38,1.38,0,0,1,154.71,20.21Z"/>
          <polygon class="cls-1" points="179.01 7.52 175.09 28.55 172.3 28.55 176.21 7.52 179.01 7.52"/>
          <path class="cls-1" d="M197.19,20.21h9.35A1.41,1.41,0,0,1,207.87,22l-.13.7a7.36,7.36,0,0,1-7,5.9h-7.45a5.26,5.26,0,0,1-5.25-6.38l.91-5a7.36,7.36,0,0,1,7-5.9h6.53a5.22,5.22,0,0,1,5.28,4.37l-2.68,1.07a2.46,2.46,0,0,0-2.6-2.68H196a4.61,4.61,0,0,0-4.27,3.62l-.91,5a2.5,2.5,0,0,0,2.54,3.14h7.45a4.64,4.64,0,0,0,4-2.82h-8.13Z"/>
          <path class="cls-1" d="M224.19,23H213.34l-.19,1a1.39,1.39,0,0,0,1.43,1.77h9.09l.53-2.82Zm-12-2.76h12.5l.19-1a1.39,1.39,0,0,0-1.42-1.77h-6.84a2.55,2.55,0,0,0-1.36.43l-2-2a5.38,5.38,0,0,1,3.33-1.22h6.84a4.14,4.14,0,0,1,4.13,5L226,28.55H214.57a4.14,4.14,0,0,1-4.13-5l.38-2.07A1.38,1.38,0,0,1,212.19,20.21Z"/>
          <path class="cls-1" d="M232.33,24a2.06,2.06,0,0,0,0,.36,1.44,1.44,0,0,0,.3.93,1.35,1.35,0,0,0,.82.46l.33,0h7.16a1.94,1.94,0,0,0,1.23-.49,2.05,2.05,0,0,0,.72-1.16,1.45,1.45,0,0,0,0-.25.94.94,0,0,0-.19-.61.87.87,0,0,0-.53-.29h-7.71a4.08,4.08,0,0,1-.72-.07,3.61,3.61,0,0,1-2.16-1.25,3.67,3.67,0,0,1-.83-2.35,4.19,4.19,0,0,1,.07-.74,4.83,4.83,0,0,1,1.64-2.78,4.71,4.71,0,0,1,3-1.15h7.16a4.65,4.65,0,0,1,.82.08,4.07,4.07,0,0,1,3.34,3.37L244,19.16a2.08,2.08,0,0,0,0-.36,1.44,1.44,0,0,0-.31-.93,1.35,1.35,0,0,0-.82-.46l-.33,0h-7.16a1.94,1.94,0,0,0-1.23.49,2.05,2.05,0,0,0-.72,1.16,1.48,1.48,0,0,0,0,.25.94.94,0,0,0,.19.61.87.87,0,0,0,.52.29h7.71a4.05,4.05,0,0,1,.72.07,3.61,3.61,0,0,1,2.16,1.25,3.67,3.67,0,0,1,.83,2.35,4.16,4.16,0,0,1-.07.74,4.83,4.83,0,0,1-1.64,2.78,4.7,4.7,0,0,1-3,1.15h-7.16a4.67,4.67,0,0,1-.82-.08,4.07,4.07,0,0,1-3.34-3.37Z"/>
        </g>
        <path class="cls-2" d="M27.54,11.18c-.94,8.36-4.15,13.71-14,13.71h2.64c9.82,0,13-5.35,14-13.71Z"/>
        <path class="cls-3" d="M0,36.07H12.23l.08-5.25c.18-11.68,2.33-19.63,14.31-19.63h3.56c.21-1.84.3-3.82.34-5.93L30.6,0H23.86C4.22,0,.89,15.7,0,36.07Z"/>
        <path class="cls-1" d="M27.54,11.18h2.64c.21-1.84.3-3.82.34-5.93L30.6,0H28l-.08,5.25C27.84,7.36,27.75,9.34,27.54,11.18Z"/>
        <path class="cls-4" d="M42.83,0H30.6l-.08,5.25c-.18,11.68-2.33,19.63-14.31,19.63H12.65c-.21,1.84-.3,3.82-.34,5.93l-.08,5.25H19C38.6,36.07,41.93,20.37,42.83,0Z"/>
        <path class="cls-2" d="M15.29,24.89c.94-8.36,4.15-13.71,14-13.71H26.62c-9.82,0-13,5.35-14,13.71Z"/>
        <path class="cls-5" d="M15.29,24.89H12.65c-.21,1.84-.3,3.82-.34,5.93l-.08,5.25h2.64l.08-5.25C15,28.71,15.08,26.73,15.29,24.89Z"/>
      </g>
    </g>
  </g>
</svg>