<svg xmlns="http://www.w3.org/2000/svg" xmlns:xlink="http://www.w3.org/1999/xlink" viewBox="0 0 29.99 40">
  <defs>
    <style>
      .cls-1 {
        fill: url(#linear-gradient);
      }

      .cls-2 {
        fill: #ff9851;
      }

      .cls-2, .cls-3 {
        fill-rule: evenodd;
      }

      .cls-3 {
        fill: #fcfcfc;
      }
    </style>
    <linearGradient id="linear-gradient" x1="14.99" x2="14.99" y2="40" gradientUnits="userSpaceOnUse">
      <stop offset="0" stop-color="#f26200"/>
      <stop offset="0.99" stop-color="#ff8836"/>
    </linearGradient>
  </defs>
  <title>pin-big</title>
  <g id="Layer_2" data-name="Layer 2">
    <g id="Layer_1-2" data-name="Layer 1">
      <path class="cls-1" d="M15.18,0A15.39,15.39,0,0,0,0,15.46C0,24,11.12,35.6,11.12,35.6L15.18,40l4.42-4.4S30,24,30,15.46,23.46,0,15.18,0Z"/>
      <path class="cls-2" d="M15,4.7A10.48,10.48,0,0,1,25.36,15.3,10.48,10.48,0,0,1,15,25.9,10.48,10.48,0,0,1,4.63,15.3,10.48,10.48,0,0,1,15,4.7Z"/>
      <path class="cls-3" d="M15,8.24a7.05,7.05,0,1,1-6.94,7.05A7,7,0,0,1,15,8.24Z"/>
    </g>
  </g>
</svg>
