<svg xmlns="http://www.w3.org/2000/svg" xmlns:xlink="http://www.w3.org/1999/xlink" viewBox="0 0 25.99 34"><defs><style>.cls-1{fill:url(#linear-gradient);}.cls-2{fill:#4e98cc;}.cls-2,.cls-3{fill-rule:evenodd;}.cls-3{fill:#fff;}</style><linearGradient id="linear-gradient" x1="12.99" y1="34" x2="12.99" gradientUnits="userSpaceOnUse"><stop offset="0" stop-color="#0d68a9"/><stop offset="0.99" stop-color="#1f82c8"/></linearGradient></defs><title>pin</title><g id="Layer_2" data-name="Layer 2"><g id="Layer_1-2" data-name="Layer 1"><path class="cls-1" d="M13.15,0A13.2,13.2,0,0,0,0,13.14C0,20.4,9.64,30.26,9.64,30.26L13.15,34,17,30.26s9-9.86,9-17.12A12.94,12.94,0,0,0,13.15,0Z"/><path class="cls-2" d="M13,4a9,9,0,1,1-9,9A9,9,0,0,1,13,4Z"/><path class="cls-3" d="M13,7a6,6,0,1,1-6,6A6,6,0,0,1,13,7Z"/></g></g></svg>