<svg xmlns="http://www.w3.org/2000/svg" width="39" height="16" viewBox="0 0 39 16">
  <metadata><?xpacket begin="﻿" id="W5M0MpCehiHzreSzNTczkc9d"?>
<x:xmpmeta xmlns:x="adobe:ns:meta/" x:xmptk="Adobe XMP Core 5.6-c138 79.159824, 2016/09/14-01:09:01        ">
   <rdf:RDF xmlns:rdf="http://www.w3.org/1999/02/22-rdf-syntax-ns#">
      <rdf:Description rdf:about=""/>
   </rdf:RDF>
</x:xmpmeta>
                                                                                                    
                                                                                                    
                                                                                                    
                                                                                                    
                                                                                                    
                                                                                                    
                                                                                                    
                                                                                                    
                                                                                                    
                                                                                                    
                                                                                                    
                                                                                                    
                                                                                                    
                                                                                                    
                                                                                                    
                                                                                                    
                                                                                                    
                                                                                                    
                                                                                                    
                                                                                                    
                           
<?xpacket end="w"?></metadata>
<defs>
    <style>
      .cls-1 {
        fill: #fff;
        fill-rule: evenodd;
      }
    </style>
  </defs>
  <path class="cls-1" d="M313.772,5096.45a1,1,0,0,0-.7.33v4.66a1.017,1.017,0,0,0,.7.34c0.407,0,.614-0.34.614-1.03v-3.26C314.386,5096.8,314.179,5096.45,313.772,5096.45Zm5.15,0c-0.47,0-.706.35-0.706,1.06v0.7h1.408v-0.7C319.624,5096.8,319.389,5096.45,318.922,5096.45Zm3.845-3a4.866,4.866,0,0,0-.923-2.26,3.369,3.369,0,0,0-2.328-.96c-3.251-.23-8.127-0.23-8.127-0.23h-0.01s-4.877,0-8.128.23a3.369,3.369,0,0,0-2.328.96,4.866,4.866,0,0,0-.923,2.26,33.714,33.714,0,0,0-.232,3.68v1.73a33.714,33.714,0,0,0,.232,3.68,4.866,4.866,0,0,0,.923,2.26,3.992,3.992,0,0,0,2.562.97c1.859,0.18,7.9.23,7.9,0.23s4.881-.01,8.132-0.24a3.369,3.369,0,0,0,2.328-.96,4.866,4.866,0,0,0,.923-2.26,33.572,33.572,0,0,0,.233-3.68v-1.73A33.572,33.572,0,0,0,322.767,5093.45Zm-17.879,9.49h-1.567v-8.82h-1.657v-1.45h4.911v1.45h-1.687v8.82Zm5.554,0h-1.409v-0.84a2.238,2.238,0,0,1-1.61.94,0.862,0.862,0,0,1-.907-0.57,3.732,3.732,0,0,1-.125-1.13v-6.05H307.8v5.63a4.19,4.19,0,0,0,.013.54,0.32,0.32,0,0,0,.329.32,1.233,1.233,0,0,0,.891-0.64v-5.85h1.409v7.65Zm5.352-2.3a5.978,5.978,0,0,1-.142,1.54,1.112,1.112,0,0,1-1.126.86,1.925,1.925,0,0,1-1.456-.84v0.74h-1.408v-10.27h1.408v3.36a1.919,1.919,0,0,1,1.456-.83,1.112,1.112,0,0,1,1.126.86,5.821,5.821,0,0,1,.142,1.54v3.04Zm5.239-1.27h-2.817v1.35c0,0.71.236,1.06,0.719,1.06a0.6,0.6,0,0,0,.629-0.55,8.745,8.745,0,0,0,.031-0.94h1.438v0.2c0,0.45-.017.76-0.03,0.89a1.9,1.9,0,0,1-.33.83,1.947,1.947,0,0,1-1.7.83,2.033,2.033,0,0,1-1.705-.78,2.929,2.929,0,0,1-.452-1.8v-2.68a2.95,2.95,0,0,1,.435-1.8,2.022,2.022,0,0,1,1.687-.78,1.974,1.974,0,0,1,1.662.78,2.984,2.984,0,0,1,.436,1.8v1.59Zm-33.478-.61v4.2h-1.578v-4.2a24.858,24.858,0,0,0-.965-3.28c-0.334-.96-0.68-1.93-1.013-2.89h1.662l1.12,4.07,1.077-4.07h1.6Zm5.365,3.51a2.137,2.137,0,0,1-3.318,0,2.919,2.919,0,0,1-.446-1.81v-2.71a2.952,2.952,0,0,1,.446-1.82,2.137,2.137,0,0,1,3.318,0,2.981,2.981,0,0,1,.442,1.82v2.71A2.947,2.947,0,0,1,292.92,5102.27Zm-0.982-4.8c0-.72-0.22-1.07-0.679-1.07s-0.679.35-.679,1.07v3.25c0,0.71.22,1.07,0.679,1.07s0.679-.36.679-1.07v-3.25Zm5.187,5.49v-0.84a2.309,2.309,0,0,1-1.626.94,0.872,0.872,0,0,1-.917-0.57,3.832,3.832,0,0,1-.126-1.15v-6.11h1.419v5.69a3.131,3.131,0,0,0,.017.54,0.324,0.324,0,0,0,.335.33,1.235,1.235,0,0,0,.9-0.65v-5.91h1.424v7.73h-1.424Z" transform="translate(-284 -5090)"/>
</svg>
