<svg xmlns="http://www.w3.org/2000/svg" viewBox="0 0 426.71 539.02">
  <defs>
    <style>
      .a {
        fill: none;
        stroke: #00c0f8;
        stroke-miterlimit: 10;
        stroke-width: 2px;
      }
    </style>
  </defs>
  <title>balon-lines</title>
  <g>
    <path class="a" d="M426,.69,298.32,133.3"/>
    <path class="a" d="M403.2,7.84,274.5,133.52"/>
    <path class="a" d="M381.05,14.79,251.33,133.55"/>
    <path class="a" d="M359.63,22.28,228.87,134.11"/>
    <path class="a" d="M339.17,31.4,207.39,136.31"/>
    <path class="a" d="M319.79,42.1,187,140.09"/>
    <path class="a" d="M301.6,54.32,167.76,145.4"/>
    <path class="a" d="M284.74,68,149.88,152.18"/>
    <path class="a" d="M269.41,83.18,133.51,160.41"/>
    <path class="a" d="M255.51,99.4,118.59,169.7"/>
    <path class="a" d="M243,116.47,105.08,179.85"/>
    <path class="a" d="M231.93,134.21,93,190.67"/>
    <path class="a" d="M222.13,152.44,82.13,202"/>
    <path class="a" d="M213.53,171l-141,42.62"/>
    <path class="a" d="M206,189.76,64,225.45"/>
    <path class="a" d="M199.46,208.6,56.38,237.37"/>
    <path class="a" d="M193.77,227.44,49.66,249.29"/>
    <path class="a" d="M188.83,246.22,43.68,261.15"/>
    <path class="a" d="M184.53,264.88l-146.17,8"/>
    <path class="a" d="M180.8,283.4,33.6,284.49"/>
    <path class="a" d="M177.56,301.75,29.33,295.92"/>
    <path class="a" d="M174.74,319.91,25.49,307.16"/>
    <path class="a" d="M172.41,337.91,22.13,318.23"/>
    <path class="a" d="M170.41,355.7,19.1,329.1"/>
    <path class="a" d="M168.68,373.27,16.35,339.75"/>
    <path class="a" d="M167.25,390.65,13.89,350.21"/>
    <path class="a" d="M166.11,407.83,11.72,360.47"/>
    <path class="a" d="M165.14,424.8,9.72,370.51"/>
    <path class="a" d="M164.4,441.57,8,380.36"/>
    <path class="a" d="M163.85,458.15,6.37,390"/>
    <path class="a" d="M163.41,474.52,4.91,399.47"/>
    <path class="a" d="M163.2,490.71l-159.53-82"/>
    <path class="a" d="M163,506.71,2.48,417.82"/>
    <path class="a" d="M163.06,522.53,1.48,426.71"/>
    <path class="a" d="M163.15,538.17.53,435.43"/>
  </g>
</svg>
