<svg xmlns="http://www.w3.org/2000/svg" xmlns:xlink="http://www.w3.org/1999/xlink" width="78" height="26" viewBox="0 0 78 26">
  <metadata><?xpacket begin="﻿" id="W5M0MpCehiHzreSzNTczkc9d"?>
<x:xmpmeta xmlns:x="adobe:ns:meta/" x:xmptk="Adobe XMP Core 5.6-c138 79.159824, 2016/09/14-01:09:01        ">
   <rdf:RDF xmlns:rdf="http://www.w3.org/1999/02/22-rdf-syntax-ns#">
      <rdf:Description rdf:about=""/>
   </rdf:RDF>
</x:xmpmeta>
                                                                                                    
                                                                                                    
                                                                                                    
                                                                                                    
                                                                                                    
                                                                                                    
                                                                                                    
                                                                                                    
                                                                                                    
                                                                                                    
                                                                                                    
                                                                                                    
                                                                                                    
                                                                                                    
                                                                                                    
                                                                                                    
                                                                                                    
                                                                                                    
                                                                                                    
                                                                                                    
                           
<?xpacket end="w"?></metadata>
<defs>
    <style>
      .cls-1 {
        fill-rule: evenodd;
        fill: url(#linear-gradient);
      }
    </style>
    <linearGradient id="linear-gradient" x1="1347" y1="4386" x2="1347" y2="4360" gradientUnits="userSpaceOnUse">
      <stop offset="0" stop-color="#1f82c8"/>
      <stop offset="1" stop-color="#0d68a9"/>
    </linearGradient>
  </defs>
  <path id="comp_logo_2" class="cls-1" d="M1330.88,4364.58A12.983,12.983,0,0,0,1308,4373v0.22h3.76a2.085,2.085,0,0,0,1.09-.42l8.02-7.61a3.3,3.3,0,0,1,1.63-.55Zm-19.71,16.94a13.185,13.185,0,0,0,9.82,4.48,12.991,12.991,0,0,0,12.98-12.98l-3.79-.06a4.779,4.779,0,0,0-1.66.96l-7.26,6.96a2.216,2.216,0,0,1-1.56.6c-2.84.01-5.68,0.03-8.53,0.04h0Zm-0.75-.96a12.986,12.986,0,0,1-1.49-2.74h8.14a2.665,2.665,0,0,0,1.45-.42q3.69-3.63,7.38-7.25a3.6,3.6,0,0,1,1.79-.85h5.83c0.1,0.43.24,0.84,0.31,1.27,0.09,0.54.12,1.09,0.17,1.64h-6.4a2.659,2.659,0,0,0-1.57.56q-3.855,3.66-7.72,7.32a2.876,2.876,0,0,1-1.48.51c-2.15,0-4.3,0-6.41-.04h0Zm-1.81-3.62a12.9,12.9,0,0,1-.56-2.83h6.63a3.161,3.161,0,0,0,1.48-.59l7.09-7.12a4.115,4.115,0,0,1,1.72-.82h6.66a8.048,8.048,0,0,1,.91,1.31,7.919,7.919,0,0,1,.62,1.44h-8.45a2.379,2.379,0,0,0-1.16.45q-3.84,3.69-7.69,7.39a3.681,3.681,0,0,1-1.85.81c-1.8-.01-3.6-0.02-5.4-0.04h0Zm42.92-7.66-2.45.03h-1.09a7.989,7.989,0,0,0-.42-1.25c-0.41-.92-1.18-1.73-3.12-1.84-2.81-.05-2.92,1.1-3.25,1.69-0.36,2.06.86,2.31,1.42,2.48l3.51,0.87c3.24,0.75,4.01,1.32,5.4,2.64v6.82c-4.63,4.56-15.13,3.3-15.06-4.21h3.93c0.47,1.27.8,2.75,2.87,3.08,0.13,0.02.33,0.06,0.58,0.1a0.109,0.109,0,0,1,.05.01,4.5,4.5,0,0,0,3.68-.84c0.36-.26,1.76-2.54-1.26-3.57l-5.36-1.35a5.559,5.559,0,0,1-3.37-2.5,6.077,6.077,0,0,1-.7-2.44,5.1,5.1,0,0,1,.5-2.66,5.82,5.82,0,0,1,3.96-3.35,9.927,9.927,0,0,1,5.13-.17,6.681,6.681,0,0,1,3.37,1.73,10.645,10.645,0,0,1,1.68,2.44v2.29Zm0,13.41v-19.37h6.29l3.4,12.8,3.4-12.84h6.48v19.44h-4.14v-13.16l-3.65,13.2h-4.1l-3.73-13.13v13.09Zm30.77-6.03a4.227,4.227,0,0,1-4.09,3.21c-2.82,0-4.81-3.07-4.81-6.87s1.99-6.87,4.81-6.87a3.653,3.653,0,0,1,3.9,3.44h3.68c-0.52-7.69-10.3-9.24-14.69-3.49v13.7c2.08,3.67,7.07,4.73,10.85,2.99,3.35-1.59,3.78-3.88,4.05-6.16-1.23.02-2.47,0.03-3.7,0.05h0Z" transform="translate(-1308 -4360)"/>
</svg>
