<svg xmlns="http://www.w3.org/2000/svg" xmlns:xlink="http://www.w3.org/1999/xlink" width="172" height="20" viewBox="0 0 172 20">
  <metadata><?xpacket begin="﻿" id="W5M0MpCehiHzreSzNTczkc9d"?>
<x:xmpmeta xmlns:x="adobe:ns:meta/" x:xmptk="Adobe XMP Core 5.6-c138 79.159824, 2016/09/14-01:09:01        ">
   <rdf:RDF xmlns:rdf="http://www.w3.org/1999/02/22-rdf-syntax-ns#">
      <rdf:Description rdf:about=""/>
   </rdf:RDF>
</x:xmpmeta>
                                                                                                    
                                                                                                    
                                                                                                    
                                                                                                    
                                                                                                    
                                                                                                    
                                                                                                    
                                                                                                    
                                                                                                    
                                                                                                    
                                                                                                    
                                                                                                    
                                                                                                    
                                                                                                    
                                                                                                    
                                                                                                    
                                                                                                    
                                                                                                    
                                                                                                    
                                                                                                    
                           
<?xpacket end="w"?></metadata>
<defs>
    <style>
      .cls-1 {
        fill-rule: evenodd;
        fill: url(#linear-gradient);
      }
    </style>
    <linearGradient id="linear-gradient" x1="587" y1="4585" x2="587" y2="4565" gradientUnits="userSpaceOnUse">
      <stop offset="0" stop-color="#1f82c8"/>
      <stop offset="1" stop-color="#0d68a9"/>
    </linearGradient>
  </defs>
  <path id="comp_logo_3" class="cls-1" d="M501.9,4584.75a12.977,12.977,0,0,1,.141-3.53c3.322,0.64,8.044.15,11.4,0,0.544-.69,1.1-0.85,1.126-2.13a2.109,2.109,0,0,0,0-1.13c-0.63-.53-0.569-1.16-1.689-1.27-1.312-.79-5.26.26-7.039-0.14-2.261-.52-3.978-1.6-4.646-3.68a7.424,7.424,0,0,1,0-3.26c0.441-1.73,1.038-3.07,2.393-3.82,2.766-1.53,9.457-.05,13.093-0.71v3.26a13.192,13.192,0,0,1-3.379.14h-7.6a4.715,4.715,0,0,0-.985.71,3.492,3.492,0,0,0-.423,2.69,15.626,15.626,0,0,1,1.408,1.27c6.525-.09,13.055-0.59,12.389,6.51a7.463,7.463,0,0,1-.423,2.12C515.828,4585.87,507.764,4584.84,501.9,4584.75Zm40.686-19.67c0.694,0.13,2.7-.04,3.1.15h0.14a24.291,24.291,0,0,0,0,7.78v5.24a4.785,4.785,0,0,0,5.35,3.11c1.47-.3,2.813-0.52,3.52-1.56,0.839-1.23.7-3.26,0.7-5.38,0.007-2.77.548-6.46,0-9.19h0.14v-0.15c0.7,0.13,2.706-.04,3.1.15,0.535,0.84.141,5.8,0.141,7.21,0,6.97.274,10.23-5.209,11.89a8.927,8.927,0,0,1-4.082.42c-7.412-1.65-7.039-4.42-7.039-13.16C542.444,4569.64,542.027,4566.74,542.585,4565.08Zm26.748,3.26c0.014,3.8,0,7.78,0,11.18,0,1.32.354,4.18,0,4.95-0.339.54-2.391,0.32-3.238,0.28a13.876,13.876,0,0,1-.141-3.53v-8.07c0.534-.84.16-3.49,0.141-4.67a2.554,2.554,0,0,0-.845-0.14c-0.712.46-2.919,0.16-3.942,0.14-0.047-.14-0.094-0.28-0.14-0.42,0.357-.56.025-1.95,0-2.83a0.457,0.457,0,0,0,.281-0.15,29.905,29.905,0,0,0,5.068.15,64.961,64.961,0,0,0,7.18-.15,12.276,12.276,0,0,1,.141,3.26,14.27,14.27,0,0,1-3.8.14A1.211,1.211,0,0,0,569.333,4568.34Zm10.277,4.81h9.15v-7.92a0.457,0.457,0,0,0,.282-0.15c0.631,0.11,2.479-.01,2.816.15,0.454,0.73.14,4.46,0.14,5.66,0,4.42.158,9.11,0.141,13.72a11.96,11.96,0,0,1-3.379.14v-0.28c-0.561-.9.01-6.94-0.14-7.92h-8.87c-0.608,1.84-.151,5.97-0.14,8.2h-3.379v-11.74a24.909,24.909,0,0,0,0-7.78h0.141v-0.15c0.7,0.13,2.706-.04,3.1.15a5.854,5.854,0,0,1,.141,2.26v5.66Zm29.845,11.6c-7.354.08-12.284,0.26-14.078-5.37-0.642-2.02-.281-5.18-0.281-7.64,0-2-.427-4.96.14-6.66,0.7,0.13,2.706-.04,3.1.15h0.14c-0.477,2.44-.049,5.88,0,8.35,0.034,1.66-.247,3.69.282,4.95a5.588,5.588,0,0,0,2.252,2.4c1.584,0.76,4.452.43,6.617,0.43a9.238,9.238,0,0,1,1.689,0C609.711,4581.98,609.474,4583.85,609.455,4584.75Zm27.734-16.13c-0.485,2.95-.282,7.53-0.282,11.32,0,1.22.314,3.85,0,4.53-0.355.56-2.636,0.32-3.519,0.28v-11.03c0-1.64-.317-3.85.141-5.24a5.023,5.023,0,0,1,6.194-3.25,4.764,4.764,0,0,1,2.252,1.55c0.775,1.27.79,2.74,1.408,4.25,0.794,1.94,1.642,4.2,2.393,6.22,0.491,1.33.522,3.63,1.831,4.11a1.374,1.374,0,0,0,1.267-.14c0.826-2.81.563-7.87,0.563-11.32,0-1.48-.26-3.6.141-4.82,0.7,0.13,2.705-.04,3.1.15a0.358,0.358,0,0,1,.141.14c0.378,1.11-.014,5.17,0,6.93,0.044,5.92,1.571,10.53-3.379,12.31a5.17,5.17,0,0,1-2.675.29c-3.842-1.16-4.7-7.91-6.054-11.75-0.647-1.83-.377-4.76-2.815-4.81A0.94,0.94,0,0,1,637.189,4568.62Zm18.724,16.13v-13.44c0-1.88-.384-4.63.141-6.23a47.654,47.654,0,0,0,7.6.15h2.393a9.312,9.312,0,0,1,3.8,1.98,5.864,5.864,0,0,1,1.408,1.27,18.589,18.589,0,0,1,1.126,2.69v0.85c0.141,0.05.282,0.09,0.422,0.14,0.6,1.09-.39,6.09-0.563,6.65C670.107,4585.73,664.645,4584.84,655.913,4584.75Zm-128.674-19.52c5.825-.09,9.559.18,11.4,4.1,2.463,5.24.894,12.77-3.379,14.72-1.008.46-1.828,0.29-3.1,0.56-5.22,1.13-9.3-1.08-10.84-4.24a12.955,12.955,0,0,1-.563-2.69,13.522,13.522,0,0,1,.14-6.51c0.623-1.68,1.834-3.96,3.238-4.81C525.013,4565.83,526.4,4565.85,527.239,4565.23Zm99.391,16.84h-10.7c-0.136,1.02-.675,1.66-0.845,2.68h-3.66a19.422,19.422,0,0,1,1.69-4.52c0.564-1.3.558-2.52,1.126-3.83,0.787-1.81,1.648-3.83,2.393-5.66,0.953-2.33.9-4.73,3.379-5.51a5,5,0,0,1,4.082.84c1.105,0.99,1.207,3.21,1.83,4.67,0.786,1.86,1.683,3.91,2.394,5.81,0.4,1.06.4,1.92,0.844,2.97,0.275,0.64,1.981,4.88,1.831,5.09-0.639.42-2.587,0.16-3.52,0.14A20.894,20.894,0,0,1,626.63,4582.07Zm32.521-13.73q0.071,6.435.14,12.88c1.536,0.51,4.235.15,6.054,0.14a6.844,6.844,0,0,1,.985-0.14,4.867,4.867,0,0,0,2.253-1.84c1.786-2.94,1.255-10.58-2.393-10.76C665.469,4568.17,660.262,4568.38,659.151,4568.34Zm-132.052.14a1.211,1.211,0,0,1-.7.14c-0.689.81-1.648,1.19-2.112,2.27-1.417,3.27-.222,8.9,1.971,10.04,1.086,0.57,2.928.43,4.5,0.43a7.789,7.789,0,0,0,3.238-.43c2.857-1.41,3.119-8.59,1.267-11.18C534.02,4568.02,530.065,4568.43,527.1,4568.48Zm93.619,0c-1.211,2.22-1.6,4.93-2.534,7.5a9.073,9.073,0,0,0-.845,2.41c1.737,0.58,5.625.15,7.743,0.14a2.083,2.083,0,0,0,.141-0.57c-0.925-1.13-.949-3.3-1.549-4.81-0.315-.79-0.837-1.92-1.126-2.69C622.082,4569.23,622.474,4568.46,620.718,4568.48Z" transform="translate(-501 -4565)"/>
</svg>
