<svg xmlns="http://www.w3.org/2000/svg" xmlns:xlink="http://www.w3.org/1999/xlink" width="56.88" height="20.84" viewBox="0 0 56.88 20.84">
  <metadata><?xpacket begin="﻿" id="W5M0MpCehiHzreSzNTczkc9d"?>
<x:xmpmeta xmlns:x="adobe:ns:meta/" x:xmptk="Adobe XMP Core 5.6-c138 79.159824, 2016/09/14-01:09:01        ">
   <rdf:RDF xmlns:rdf="http://www.w3.org/1999/02/22-rdf-syntax-ns#">
      <rdf:Description rdf:about=""/>
   </rdf:RDF>
</x:xmpmeta>
                                                                                                    
                                                                                                    
                                                                                                    
                                                                                                    
                                                                                                    
                                                                                                    
                                                                                                    
                                                                                                    
                                                                                                    
                                                                                                    
                                                                                                    
                                                                                                    
                                                                                                    
                                                                                                    
                                                                                                    
                                                                                                    
                                                                                                    
                                                                                                    
                                                                                                    
                                                                                                    
                           
<?xpacket end="w"?></metadata>
<defs>
    <style>
      .cls-1 {
        fill-rule: evenodd;
        fill: url(#linear-gradient);
      }
    </style>
    <linearGradient id="linear-gradient" x1="1336.78" y1="4748.09" x2="1336.78" y2="4727.25" gradientUnits="userSpaceOnUse">
      <stop offset="0" stop-color="#1f82c8"/>
      <stop offset="1" stop-color="#0d68a9"/>
    </linearGradient>
  </defs>
  <path id="comp_logo_6" class="cls-1" d="M1308.33,4747.68h4.55v-20.19h-4.55v20.19Zm11.48-20.31a27.008,27.008,0,0,0-3.15.41v19.9h4.55v-6.76h1.42a12.672,12.672,0,0,0,7-1.62c1.63-1.07,2.44-2.83,2.44-5.26,0-2.4-.8-4.14-2.41-5.2a12.754,12.754,0,0,0-6.94-1.58C1321.89,4727.26,1320.92,4727.3,1319.81,4727.37Zm5.01,3.89a4.077,4.077,0,0,1,1.38.47,2.349,2.349,0,0,1,.88.89,2.9,2.9,0,0,1,.3,1.4,2.463,2.463,0,0,1-1.19,2.39,7.853,7.853,0,0,1-3.56.64h-1.42v-5.83c0.23-.02.51-0.04,0.83-0.06s0.64-.03.97-0.03A12.407,12.407,0,0,1,1324.82,4731.26Zm18.72,7.72a3.284,3.284,0,0,1,.74,2.29,3.888,3.888,0,0,1-.16,1.09,3.43,3.43,0,0,1-.49,1.04,2.991,2.991,0,0,1-.85.77,2.4,2.4,0,0,1-1.24.3,2.528,2.528,0,0,1-1.45-.39,2.871,2.871,0,0,1-.94-1.09,5.778,5.778,0,0,1-.49-1.63,12.438,12.438,0,0,1-.15-1.98c0-.12.01-0.26,0.02-0.41s0.01-.27.01-0.35a3.948,3.948,0,0,1,1.14-.32,8.375,8.375,0,0,1,1.37-.12A3.307,3.307,0,0,1,1343.54,4738.98Zm-3.19-4.06a5.109,5.109,0,0,0-1.31.41,5.793,5.793,0,0,1,1.22-2.03,6.442,6.442,0,0,1,1.85-1.35,9.08,9.08,0,0,1,2.36-.77,16.052,16.052,0,0,1,2.78-.28c-0.04-.62-0.08-1.22-0.11-1.79s-0.08-1.16-.12-1.77a17.406,17.406,0,0,0-5.35.83,11.407,11.407,0,0,0-4.05,2.34,10.077,10.077,0,0,0-2.57,3.77,13.524,13.524,0,0,0-.91,5.15,9.709,9.709,0,0,0,1.9,6.36,6.749,6.749,0,0,0,5.53,2.3,7.191,7.191,0,0,0,3.13-.64,6.532,6.532,0,0,0,3.47-3.85,7.346,7.346,0,0,0,.42-2.39,7.8,7.8,0,0,0-.38-2.48,5.211,5.211,0,0,0-1.22-2.03,5.841,5.841,0,0,0-2.17-1.39,8.989,8.989,0,0,0-3.22-.51A7.028,7.028,0,0,0,1340.35,4734.92Zm19.82,4.06a3.24,3.24,0,0,1,.75,2.29,4.291,4.291,0,0,1-.16,1.09,3.452,3.452,0,0,1-.5,1.04,2.825,2.825,0,0,1-.84.77,2.423,2.423,0,0,1-1.24.3,2.561,2.561,0,0,1-1.46-.39,2.766,2.766,0,0,1-.93-1.09,5.778,5.778,0,0,1-.5-1.63,13.771,13.771,0,0,1-.14-1.98c0-.12,0-0.26.01-0.41s0.02-.27.02-0.35a3.966,3.966,0,0,1,1.13-.32,8.47,8.47,0,0,1,1.37-.12A3.276,3.276,0,0,1,1360.17,4738.98Zm-3.19-4.06a5.366,5.366,0,0,0-1.31.41,5.667,5.667,0,0,1,1.23-2.03,6.442,6.442,0,0,1,1.85-1.35,8.838,8.838,0,0,1,2.36-.77,16.052,16.052,0,0,1,2.78-.28c-0.04-.62-0.08-1.22-0.12-1.79s-0.08-1.16-.12-1.77a17.291,17.291,0,0,0-5.34.83,11.407,11.407,0,0,0-4.05,2.34,9.984,9.984,0,0,0-2.58,3.77,13.722,13.722,0,0,0-.9,5.15,9.763,9.763,0,0,0,1.89,6.36,6.77,6.77,0,0,0,5.54,2.3,7.254,7.254,0,0,0,3.13-.64,6.887,6.887,0,0,0,2.18-1.63,6.8,6.8,0,0,0,1.29-2.22,7.346,7.346,0,0,0,.42-2.39,8.094,8.094,0,0,0-.38-2.48,5.211,5.211,0,0,0-1.22-2.03,5.883,5.883,0,0,0-2.18-1.39,8.931,8.931,0,0,0-3.21-.51A7.223,7.223,0,0,0,1356.98,4734.92Z" transform="translate(-1308.34 -4727.25)"/>
</svg>
