<svg xmlns="http://www.w3.org/2000/svg" xmlns:xlink="http://www.w3.org/1999/xlink" width="134" height="21" viewBox="0 0 134 21">
  <metadata><?xpacket begin="﻿" id="W5M0MpCehiHzreSzNTczkc9d"?>
<x:xmpmeta xmlns:x="adobe:ns:meta/" x:xmptk="Adobe XMP Core 5.6-c138 79.159824, 2016/09/14-01:09:01        ">
   <rdf:RDF xmlns:rdf="http://www.w3.org/1999/02/22-rdf-syntax-ns#">
      <rdf:Description rdf:about=""/>
   </rdf:RDF>
</x:xmpmeta>
                                                                                                    
                                                                                                    
                                                                                                    
                                                                                                    
                                                                                                    
                                                                                                    
                                                                                                    
                                                                                                    
                                                                                                    
                                                                                                    
                                                                                                    
                                                                                                    
                                                                                                    
                                                                                                    
                                                                                                    
                                                                                                    
                                                                                                    
                                                                                                    
                                                                                                    
                                                                                                    
                           
<?xpacket end="w"?></metadata>
<defs>
    <style>
      .cls-1 {
        fill-rule: evenodd;
        fill: url(#linear-gradient);
      }
    </style>
    <linearGradient id="linear-gradient" x1="568" y1="4381" x2="568" y2="4360" gradientUnits="userSpaceOnUse">
      <stop offset="0" stop-color="#1f82c8"/>
      <stop offset="1" stop-color="#0d68a9"/>
    </linearGradient>
  </defs>
  <path id="comp_logo_1" class="cls-1" d="M515.371,4360.73v3.88a17.718,17.718,0,0,0-5.52-1.03c-2,0-3.119.61-3.119,1.7,0,0.69.489,1.15,1.889,1.78l3.766,1.67c3.012,1.35,4.53,3.31,4.53,5.85,0,3.93-3.427,6.41-8.86,6.41a30.968,30.968,0,0,1-6.7-.83v-4.01a25.5,25.5,0,0,0,6.327,1c2.246,0,3.449-.62,3.449-1.78,0-.69-0.47-1.2-1.546-1.68l-4.121-1.82c-3.056-1.35-4.466-3.18-4.466-5.77,0-3.72,3.3-6.09,8.486-6.09a26.5,26.5,0,0,1,5.887.72h0Zm4.479-.32h6.09v20.17h-6.09v-20.17h0Zm25.891,0v3.7h-9.194v4.55h8.032V4372h-8.032v4.72h9.313v3.86H530.629v-20.17h15.112Zm28.771,0v20.17h-5.893v-13.27l-5.771,13.43h-3.726l-5.733-13.43v13.27h-4.068v-20.17h7.437l5.258,12.27,5.23-12.27h7.266Zm19.816,0v3.7h-9.207v4.55h8.029V4372h-8.029v4.72h9.311v3.86H579.187v-20.17h15.141Zm21.451,0v20.17h-6.5l-7.318-12.93v12.93h-4.07v-20.17h6.67l7.161,12.77v-12.77h4.055Zm17.674,0.32v3.88a17.914,17.914,0,0,0-5.489-1.03c-2.036,0-3.15.6-3.15,1.69,0,0.72.455,1.14,1.9,1.79l3.749,1.67c3.034,1.36,4.533,3.3,4.533,5.88,0,3.91-3.43,6.38-8.85,6.38a31,31,0,0,1-6.712-.83v-4.01a25.434,25.434,0,0,0,6.309,1c2.23,0,3.467-.62,3.467-1.74,0-.74-0.433-1.22-1.56-1.72l-4.106-1.82c-3.074-1.36-4.468-3.16-4.468-5.77,0-3.72,3.3-6.09,8.475-6.09a26.535,26.535,0,0,1,5.9.72h0Z" transform="translate(-501 -4360)"/>
</svg>
