<svg xmlns="http://www.w3.org/2000/svg" xmlns:xlink="http://www.w3.org/1999/xlink" width="119" height="22" viewBox="0 0 119 22">
  <metadata><?xpacket begin="﻿" id="W5M0MpCehiHzreSzNTczkc9d"?>
<x:xmpmeta xmlns:x="adobe:ns:meta/" x:xmptk="Adobe XMP Core 5.6-c138 79.159824, 2016/09/14-01:09:01        ">
   <rdf:RDF xmlns:rdf="http://www.w3.org/1999/02/22-rdf-syntax-ns#">
      <rdf:Description rdf:about=""/>
   </rdf:RDF>
</x:xmpmeta>
                                                                                                    
                                                                                                    
                                                                                                    
                                                                                                    
                                                                                                    
                                                                                                    
                                                                                                    
                                                                                                    
                                                                                                    
                                                                                                    
                                                                                                    
                                                                                                    
                                                                                                    
                                                                                                    
                                                                                                    
                                                                                                    
                                                                                                    
                                                                                                    
                                                                                                    
                                                                                                    
                           
<?xpacket end="w"?></metadata>
<defs>
    <style>
      .cls-1 {
        fill-rule: evenodd;
        fill: url(#linear-gradient);
      }
    </style>
    <linearGradient id="linear-gradient" x1="560.5" y1="4772" x2="560.5" y2="4750" gradientUnits="userSpaceOnUse">
      <stop offset="0" stop-color="#1f82c8"/>
      <stop offset="1" stop-color="#0d68a9"/>
    </linearGradient>
  </defs>
  <path id="comp_logo_5" class="cls-1" d="M522.538,4750.04v4.39H506.774l-0.023,4.39h14.331v4.4H506.751l0.023,8.78H501l0.019-21.99Zm24.312-.03,0.03,4.34h-17.2l0.022,4.44h15.737l-0.018,4.34-15.786-.02v4.46l17.309-.02v4.39h-22.98V4750Zm25.873,4.36,0-4.34h22.9v4.34h-8.624l0.027,17.62h-5.75l0.027-17.62h-8.572Zm-21.479,8.82s-2.892.44-2.892-2.96v-7.26a2.692,2.692,0,0,1,2.842-2.91h17.2a2.656,2.656,0,0,1,2.868,2.93v2.87H565.53v-1.41H554.061v4.37h14.311s2.906-.33,2.906,2.97,0.027,7.26.027,7.26a2.77,2.77,0,0,1-2.933,2.88H551.219s-2.868.38-2.868-2.93v-2.88h5.71v1.46H565.58v-4.39H551.244Zm68.733,5.84v-16.05c0-3.39-2.878-2.94-2.878-2.94H599.935c-3.345,0-2.879,2.94-2.879,2.94s0.048,12.86.048,16.06a2.613,2.613,0,0,0,2.858,2.92h17.151C620.417,4771.96,619.977,4769.03,619.977,4769.03Zm-7.159-1.46h-8.606s-1.437.39-1.437-1.47,0.011-10.26.011-10.26a1.388,1.388,0,0,1,1.413-1.45h8.6a1.292,1.292,0,0,1,1.445,1.48v10.25A1.257,1.257,0,0,1,612.818,4767.57Z" transform="translate(-501 -4750)"/>
</svg>
