<svg xmlns="http://www.w3.org/2000/svg" xmlns:xlink="http://www.w3.org/1999/xlink" width="118" height="29" viewBox="0 0 118 29">
  <metadata><?xpacket begin="﻿" id="W5M0MpCehiHzreSzNTczkc9d"?>
<x:xmpmeta xmlns:x="adobe:ns:meta/" x:xmptk="Adobe XMP Core 5.6-c138 79.159824, 2016/09/14-01:09:01        ">
   <rdf:RDF xmlns:rdf="http://www.w3.org/1999/02/22-rdf-syntax-ns#">
      <rdf:Description rdf:about=""/>
   </rdf:RDF>
</x:xmpmeta>
                                                                                                    
                                                                                                    
                                                                                                    
                                                                                                    
                                                                                                    
                                                                                                    
                                                                                                    
                                                                                                    
                                                                                                    
                                                                                                    
                                                                                                    
                                                                                                    
                                                                                                    
                                                                                                    
                                                                                                    
                                                                                                    
                                                                                                    
                                                                                                    
                                                                                                    
                                                                                                    
                           
<?xpacket end="w"?></metadata>
<defs>
    <style>
      .cls-1 {
        fill-rule: evenodd;
        fill: url(#linear-gradient);
      }
    </style>
    <linearGradient id="linear-gradient" x1="1367" y1="4574" x2="1367" y2="4545" gradientUnits="userSpaceOnUse">
      <stop offset="0" stop-color="#1f82c8"/>
      <stop offset="1" stop-color="#0d68a9"/>
    </linearGradient>
  </defs>
  <path id="comp_logo_4" class="cls-1" d="M1407.89,4570.13a7.013,7.013,0,0,0,1.37.09,2.474,2.474,0,0,0,1.46-.72,3.337,3.337,0,0,0,.74-1.36,2.187,2.187,0,0,0,0-1.08l-2.84-15.67h4.94l1.65,11.44,5.94-11.44H1426l-10.79,18.83a7.48,7.48,0,0,1-2.66,2.88,8.124,8.124,0,0,1-3.93.9c-0.46,0-.91-0.09-1.37-0.09s-0.64-.09-1.1-0.09l1.74-3.69m-1.83-16.94a4.009,4.009,0,0,0-1.56-1.44,5.779,5.779,0,0,0-2.01-.72,22.682,22.682,0,0,0-2.56-.18,16,16,0,0,0-2.84.27,13.367,13.367,0,0,0-2.65.99,6.506,6.506,0,0,0-2.1,1.71,6.267,6.267,0,0,0-1.28,2.71h4.66a3.2,3.2,0,0,1,1.28-1.98,3.958,3.958,0,0,1,2.2-.54,4.923,4.923,0,0,1,1.19.09,1.62,1.62,0,0,1,.91.26,1.428,1.428,0,0,1,.55.73,1.968,1.968,0,0,1-.55,2.25,3.083,3.083,0,0,1-1.37.54,5.6,5.6,0,0,1-1.83.27c-0.64.09-1.37,0.18-2.1,0.27a14.26,14.26,0,0,0-2.11.45,7.841,7.841,0,0,0-2.01.81,6.065,6.065,0,0,0-1.55,1.53,4.178,4.178,0,0,0-.83,2.34,3.443,3.443,0,0,0,.09,2.16,3.592,3.592,0,0,0,2.29,2.43,8.537,8.537,0,0,0,3.38.64,16.608,16.608,0,0,0,4.58-.64,7.6,7.6,0,0,0,4.57-3.6,7.172,7.172,0,0,0,.92-2.16c0-.09,1-6.75,1-6.75a3.51,3.51,0,0,0-.27-2.44m-6.13,10.72a4.532,4.532,0,0,1-4.57,1.44,2.13,2.13,0,0,1-.92-0.36,1.567,1.567,0,0,1-.27-2.34c0.73-.99,2.1-1.17,3.2-1.26a12.786,12.786,0,0,0,3.57-.81A7.535,7.535,0,0,1,1399.93,4563.91Zm-10.15-8.74a5.658,5.658,0,0,0-4.3.46,4.957,4.957,0,0,0-2.29,2.61,7.5,7.5,0,0,0-.55,1.89c-0.46,2.07-.82,4.14-1.28,6.21-0.09.54-.18,1.17-0.27,1.71h-4.67c0.64-3.15,1.19-6.3,1.83-9.45a9.314,9.314,0,0,1,6.86-7.12,15.711,15.711,0,0,1,5.4-.27l-0.73,3.96m-33.03,0a5.7,5.7,0,0,0-4.2.46,3.829,3.829,0,0,0-1.74,2.7,6.252,6.252,0,0,0-.28,1.8v7.92h-4.66v-9.36a7.3,7.3,0,0,1,5.49-7.21,15.45,15.45,0,0,1,5.39-.18v3.87m-21.67,8.92c2.74,0,3.29-2.61,3.29-4.86v-7.84h4.66v9.37a7.254,7.254,0,0,1-4.75,6.94,9.937,9.937,0,0,1-3.2.62,10.489,10.489,0,0,1-3.3-.62,7.057,7.057,0,0,1-4.66-6.94c-0.09-3.15,0-6.3,0-9.37h4.66v7.84c-0.09,2.25.46,4.86,3.3,4.86m38.6-10.9a4.544,4.544,0,0,0-1.74-1.44,10.427,10.427,0,0,0-2.38-.72,26.206,26.206,0,0,0-2.65-.18,15.914,15.914,0,0,0-2.84.27,10.121,10.121,0,0,0-2.47.99,5.551,5.551,0,0,0-1.83,1.71,6.054,6.054,0,0,0-.82,2.71h4.67a2.557,2.557,0,0,1,.91-1.98,3.958,3.958,0,0,1,2.2-.54,4.462,4.462,0,0,1,1.09.09,1.971,1.971,0,0,1,1.01.26,2.632,2.632,0,0,1,.64.73,1.865,1.865,0,0,1-.18,2.25,2.441,2.441,0,0,1-1.28.54,5.048,5.048,0,0,1-1.74.27c-0.73.09-1.37,0.18-2.11,0.27a17.487,17.487,0,0,0-2.1.45,6.679,6.679,0,0,0-1.83.81,4.314,4.314,0,0,0-1.28,1.53,4.2,4.2,0,0,0-.55,2.34,4.963,4.963,0,0,0,.46,2.16,4.906,4.906,0,0,0,2.65,2.43,9.766,9.766,0,0,0,3.57.64,14.909,14.909,0,0,0,4.39-.64,6.783,6.783,0,0,0,4.39-3.6,6.375,6.375,0,0,0,.55-2.16v-6.75a4.131,4.131,0,0,0-.73-2.44m-4.3,10.72c-0.83,1.53-2.84,1.71-4.48,1.44a2.808,2.808,0,0,1-.92-0.36,1.7,1.7,0,0,1-.64-2.34c0.55-.99,1.92-1.17,3.02-1.26a11.539,11.539,0,0,0,3.48-.81C1369.84,4561.66,1370.02,4562.92,1369.38,4563.91Zm-61.38,4.23h4.66V4545H1308v23.14Zm12.07-7.74a4.97,4.97,0,0,1-.91-2.34,2.863,2.863,0,0,1,.91-1.89l4.58-4.78h-5.95l-2.38,2.8a5.973,5.973,0,0,0-1.92,3.87c0,2.07,1.92,4.77,1.92,4.77l3.57,5.22h5.49l-5.31-7.65" transform="translate(-1308 -4545)"/>
</svg>
