<svg xmlns="http://www.w3.org/2000/svg" viewBox="0 0 298.8 788.9">
  <defs>
    <style>
      .a {
        fill: none;
        stroke: #00c0f8;
        stroke-miterlimit: 10;
        stroke-width: 2px;
      }
    </style>
  </defs>
  <title>eco-lines</title>
  <g>
    <path class="a" d="M287,788.86,297.8,566.4"/>
    <path class="a" d="M273.54,760.06l5.93-217.4"/>
    <path class="a" d="M258.71,733.49q.55-106.17,1.1-212.33"/>
    <path class="a" d="M243.33,708.63,239.6,501.36"/>
    <path class="a" d="M227.75,685.19,219.19,483"/>
    <path class="a" d="M212.2,662.94,198.81,465.8"/>
    <path class="a" d="M196.85,641.66,178.63,449.58"/>
    <path class="a" d="M181.78,621.2l-23-187"/>
    <path class="a" d="M167,601.49l-27.88-182"/>
    <path class="a" d="M152.51,582.52,119.8,405.63"/>
    <path class="a" d="M138.42,564.07,100.88,392.24"/>
    <path class="a" d="M125.23,545.6,82.86,378.84"/>
    <path class="a" d="M113.77,526.36l-47.2-161.7"/>
    <path class="a" d="M104.1,506.44l-52-156.63"/>
    <path class="a" d="M96.29,486,39.43,334.39"/>
    <path class="a" d="M90.42,465,28.73,318.54"/>
    <path class="a" d="M86.62,443.82,20.1,302.38"/>
    <path class="a" d="M84.61,422.56,13.26,286.18"/>
    <path class="a" d="M84.26,401.42,8.08,270.1"/>
    <path class="a" d="M85.42,380.53l-81-126.25"/>
    <path class="a" d="M87.92,360,2.08,238.79"/>
    <path class="a" d="M91.59,339.86.92,223.73"/>
    <path class="a" d="M96.26,320.2.76,209.13"/>
    <path class="a" d="M101.77,301,1.44,195"/>
    <path class="a" d="M108,282.35,2.82,181.41"/>
    <path class="a" d="M114.76,264.16l-110-95.87"/>
    <path class="a" d="M122,246.43,7.19,155.62"/>
    <path class="a" d="M129.64,229.15,10,143.4"/>
    <path class="a" d="M137.57,212.28,13.09,131.6"/>
    <path class="a" d="M145.74,195.82,16.43,120.2"/>
    <path class="a" d="M154.21,179.77,20.07,109.21"/>
    <path class="a" d="M162.83,164.08l-139-65.49"/>
    <path class="a" d="M171.55,148.72,27.75,88.29"/>
    <path class="a" d="M180.4,133.7,31.77,78.33"/>
    <path class="a" d="M189.37,119,35.91,68.7"/>
    <path class="a" d="M198.36,104.58,40.07,59.34"/>
    <path class="a" d="M207.43,90.45,44.3,50.27"/>
    <path class="a" d="M216.53,76.59l-168-35.11"/>
    <path class="a" d="M225.61,63,52.83,32.9"/>
    <path class="a" d="M234.77,49.6l-177.61-25"/>
    <path class="a" d="M243.86,36.44,61.42,16.51"/>
    <path class="a" d="M253,23.52,65.73,8.66"/>
    <path class="a" d="M262.09,10.79,70,1"/>
  </g>
</svg>
