<svg xmlns="http://www.w3.org/2000/svg" width="40" height="45" viewBox="0 0 40 45">
  <metadata><?xpacket begin="﻿" id="W5M0MpCehiHzreSzNTczkc9d"?>
<x:xmpmeta xmlns:x="adobe:ns:meta/" x:xmptk="Adobe XMP Core 5.6-c138 79.159824, 2016/09/14-01:09:01        ">
   <rdf:RDF xmlns:rdf="http://www.w3.org/1999/02/22-rdf-syntax-ns#">
      <rdf:Description rdf:about=""/>
   </rdf:RDF>
</x:xmpmeta>
                                                                                                    
                                                                                                    
                                                                                                    
                                                                                                    
                                                                                                    
                                                                                                    
                                                                                                    
                                                                                                    
                                                                                                    
                                                                                                    
                                                                                                    
                                                                                                    
                                                                                                    
                                                                                                    
                                                                                                    
                                                                                                    
                                                                                                    
                                                                                                    
                                                                                                    
                                                                                                    
                           
<?xpacket end="w"?></metadata>
<defs>
    <style>
      .cls-1 {
        fill: #cde4f8;
        fill-rule: evenodd;
      }
    </style>
  </defs>
  <path class="cls-1" d="M20,0L0,5.444V23.478C0,37.5,10.578,42.23,18.535,44.569L20,45l1.465-.431C29.422,42.23,40,37.5,40,23.478V5.445ZM38.2,23.478c0,12.8-9.837,17.17-17.236,19.347L20,43.106l-0.96-.282C11.642,40.648,1.8,36.277,1.8,23.478V6.836L20,1.882,38.2,6.837V23.478ZM4.06,8.574v14.9c0,4.447,1.239,7.958,3.789,10.734a19.85,19.85,0,0,0,6.609,4.536,40.72,40.72,0,0,0,5.216,1.9L20,40.742l0.326-.1c10.943-3.217,15.612-8.35,15.612-17.166V8.575L20,4.235Zm30.075,14.9c0,7.918-4.1,12.38-14.135,15.369a38.338,38.338,0,0,1-4.8-1.758,18.087,18.087,0,0,1-6.024-4.111c-2.226-2.424-3.309-5.531-3.309-9.5V9.965L20,6.116,34.135,9.965V23.478ZM17.338,28.8a2.153,2.153,0,0,1,.353-1.044,10.8,10.8,0,0,1,.874-1.252q0.523-.652,1.11-1.253t1.031-1.044q0.782-.782,1.566-1.6a17.551,17.551,0,0,0,1.409-1.67,8.82,8.82,0,0,0,1-1.723,4.524,4.524,0,0,0,.378-1.814,4.818,4.818,0,0,0-1.422-3.719,6.089,6.089,0,0,0-4.267-1.318,6.261,6.261,0,0,0-1.749.235,7.981,7.981,0,0,0-1.461.574,6.793,6.793,0,0,0-1.122.718,6.314,6.314,0,0,0-.705.639l1.2,1.722q0.182-.157.522-0.457a4.7,4.7,0,0,1,.835-0.574,6.737,6.737,0,0,1,1.122-.483,4.372,4.372,0,0,1,1.384-.209,4.089,4.089,0,0,1,1.187.169,2.624,2.624,0,0,1,.979.535,2.655,2.655,0,0,1,.666.913,3.223,3.223,0,0,1,.248,1.331,3.532,3.532,0,0,1-.274,1.383,6.025,6.025,0,0,1-.73,1.266,12.974,12.974,0,0,1-1.044,1.226q-0.588.614-1.239,1.24-0.784.783-1.592,1.618a14.111,14.111,0,0,0-1.462,1.775,9.35,9.35,0,0,0-1.057,2,6.336,6.336,0,0,0-.4,2.283v0.287a1.879,1.879,0,0,0,.026.313H25.663V28.8H17.338Z"/>
</svg>
