<svg xmlns="http://www.w3.org/2000/svg" width="44.031" height="43.969" viewBox="0 0 44.031 43.969">
  <metadata><?xpacket begin="﻿" id="W5M0MpCehiHzreSzNTczkc9d"?>
<x:xmpmeta xmlns:x="adobe:ns:meta/" x:xmptk="Adobe XMP Core 5.6-c138 79.159824, 2016/09/14-01:09:01        ">
   <rdf:RDF xmlns:rdf="http://www.w3.org/1999/02/22-rdf-syntax-ns#">
      <rdf:Description rdf:about=""/>
   </rdf:RDF>
</x:xmpmeta>
                                                                                                    
                                                                                                    
                                                                                                    
                                                                                                    
                                                                                                    
                                                                                                    
                                                                                                    
                                                                                                    
                                                                                                    
                                                                                                    
                                                                                                    
                                                                                                    
                                                                                                    
                                                                                                    
                                                                                                    
                                                                                                    
                                                                                                    
                                                                                                    
                                                                                                    
                                                                                                    
                           
<?xpacket end="w"?></metadata>
<defs>
    <style>
      .cls-1 {
        fill: #cde4f8;
        fill-rule: evenodd;
      }
    </style>
  </defs>
  <path id="h-trigger_2" class="cls-1" d="M689.321,547.825l-0.628-.52-0.633.513a1.461,1.461,0,0,0-.307.328q-0.519.777-1.035,1.555l-0.658.991a0.559,0.559,0,0,1-.354.2,1.439,1.439,0,0,1-1.061-.273c-0.982-.688-4.211-3.571-6.507-5.737-2.227-2.359-5.066-5.539-5.763-6.535a1.423,1.423,0,0,1-.271-1.058,0.547,0.547,0,0,1,.2-0.359l2.536-1.686a1.464,1.464,0,0,0,.326-0.3l0.519-.634-0.522-.631a95.806,95.806,0,0,1-5.856-7.849l-0.539-.807-0.821.519a19.326,19.326,0,0,0-3.314,2.644c-0.438.44-.874,0.928-1.372,1.537l-0.2.242-0.024.312c-0.5,6.415,2.834,13.691,9.132,19.945,5.92,6.2,13.045,9.78,19.315,9.78q0.622,0,1.233-.047l0.311-.024,0.242-.2c0.592-.485,1.094-0.936,1.535-1.377a19.186,19.186,0,0,0,2.646-3.313l0.518-.82-0.807-.539A95.986,95.986,0,0,1,689.321,547.825Zm4.082,9.118c-0.333.334-.709,0.676-1.144,1.042-5.9.318-12.842-3.074-18.662-9.163-5.8-5.756-8.912-12.329-8.589-18.087,0.373-.446.707-0.814,1.038-1.147a17.351,17.351,0,0,1,2.168-1.831c1.458,2.133,3.046,4.262,4.738,6.352l-1.737,1.156a2.487,2.487,0,0,0-1.067,1.646,3.4,3.4,0,0,0,.6,2.579c0.851,1.216,4.062,4.763,5.963,6.778l0.041,0.04c2,1.889,5.531,5.082,6.75,5.938a3.411,3.411,0,0,0,2.581.6,2.491,2.491,0,0,0,1.642-1.057l0.654-.986,0.507-.763c2.087,1.69,4.217,3.278,6.352,4.736A17.243,17.243,0,0,1,693.4,556.943Zm-12.62-26.678a2.948,2.948,0,1,1,5.9,0v0.525c0,0.824-1.573,1.92-2.961,2.886a13.785,13.785,0,0,0-3.548,3.093,8.594,8.594,0,0,0-1.744,5.047l0.068,0.923h9.128v-1.991h-7.1a8.31,8.31,0,0,1,1.3-2.858,12.534,12.534,0,0,1,3.04-2.58c1.961-1.366,3.814-2.656,3.814-4.52v-0.525a4.939,4.939,0,1,0-9.878,0h1.991Zm15.721-4.47h-1.991v0.057L687.5,537.181l0.846,1.519h6.172v3.919H696.5V538.7h1.639v-1.991H696.5V525.795Zm-6.375,10.914,4.384-7.078v7.078h-4.384ZM673.4,522.875l-1.338-1.473c-0.257.233-.509,0.472-0.757,0.72l1.41,1.406Q673.055,523.192,673.4,522.875Zm13.622-4.862,0.1-1.989c-0.68-.032-1.366-0.033-2.049,0l0.1,1.988Q686.1,517.967,687.026,518.013Zm19.947,17.837-1.988.1q0.022,0.473.023,0.945,0,0.456-.022.91l1.989,0.1c0.016-.334.024-0.67,0.024-1S706.99,536.2,706.973,535.85Zm-23.648-17.658-0.29-1.97c-0.676.1-1.352,0.234-2.011,0.4l0.481,1.931C682.1,518.4,682.713,518.283,683.325,518.192Zm7.849-1.569c-0.66-.165-1.337-0.3-2.011-0.4l-0.29,1.97c0.61,0.089,1.222.211,1.819,0.36ZM695.031,518c-0.615-.291-1.253-0.555-1.895-0.784l-0.669,1.875c0.58,0.208,1.156.445,1.712,0.708Zm9.77,16.1,1.97-.294c-0.1-.676-0.235-1.351-0.4-2.009l-1.932.483C704.588,532.88,704.71,533.492,704.8,534.1Zm-0.9-3.593,1.874-.672c-0.229-.641-0.494-1.278-0.786-1.893l-1.8.852C703.454,529.355,703.693,529.931,703.9,530.511Zm-1.587-3.347,1.706-1.025c-0.35-.582-0.734-1.155-1.142-1.7l-1.6,1.188C701.65,526.121,702,526.638,702.314,527.164Zm-25.933-6.5-1.025-1.706c-0.585.351-1.159,0.734-1.7,1.139l1.187,1.6C675.332,521.333,675.851,520.985,676.381,520.667Zm24.932,27.47,1.6,1.184c0.4-.547.788-1.12,1.137-1.7l-1.709-1.022C702.025,547.124,701.679,547.642,701.313,548.137Zm1.9-3.178,1.8,0.847c0.289-.614.552-1.252,0.78-1.9l-1.876-.665C703.71,543.827,703.473,544.4,703.211,544.959Zm-7.4-24.285a18.538,18.538,0,0,1,1.541,1.031l1.188-1.6c-0.546-.406-1.119-0.79-1.7-1.141Zm8.636,20.8,1.933,0.48c0.164-.661.3-1.337,0.395-2.012l-1.97-.287C704.719,540.26,704.6,540.872,704.45,541.469ZM700.1,524.193l1.474-1.338c-0.226-.249-0.458-0.493-0.7-0.734s-0.5-.483-0.751-0.714l-1.336,1.475q0.345,0.314.679,0.647C699.685,523.746,699.9,523.968,700.1,524.193Zm-20.371-5.106-0.669-1.875c-0.642.229-1.279,0.492-1.895,0.782l0.85,1.8C678.573,519.532,679.15,519.294,679.73,519.087Zm19.737,31.19,1.41,1.406q0.371-.372.72-0.756l-1.477-1.336Q699.805,549.94,699.467,550.277Z" transform="translate(-662.969 -516.031)"/>
</svg>
