<svg xmlns="http://www.w3.org/2000/svg" width="43" height="44" viewBox="0 0 43 44">
  <metadata><?xpacket begin="﻿" id="W5M0MpCehiHzreSzNTczkc9d"?>
<x:xmpmeta xmlns:x="adobe:ns:meta/" x:xmptk="Adobe XMP Core 5.6-c138 79.159824, 2016/09/14-01:09:01        ">
   <rdf:RDF xmlns:rdf="http://www.w3.org/1999/02/22-rdf-syntax-ns#">
      <rdf:Description rdf:about=""/>
   </rdf:RDF>
</x:xmpmeta>
                                                                                                    
                                                                                                    
                                                                                                    
                                                                                                    
                                                                                                    
                                                                                                    
                                                                                                    
                                                                                                    
                                                                                                    
                                                                                                    
                                                                                                    
                                                                                                    
                                                                                                    
                                                                                                    
                                                                                                    
                                                                                                    
                                                                                                    
                                                                                                    
                                                                                                    
                                                                                                    
                           
<?xpacket end="w"?></metadata>
<defs>
    <style>
      .cls-1 {
        fill: #cde4f8;
        fill-rule: evenodd;
      }
    </style>
  </defs>
  <path id="h-trigger_6" class="cls-1" d="M701.988,685a3.7,3.7,0,0,0-.423.023c-1.071,0-10.3,0-27.438,0h-1.693a0.663,0.663,0,0,0-.1.007,4.029,4.029,0,0,0-3.546,4.019v31.667h1.751V689.044a2.271,2.271,0,0,1,1.949-2.259h1.638c12.239,0,20.445,0,24.531,0-0.014.021-.023,0.045-0.037,0.065a4.214,4.214,0,0,0-.21.371c-0.024.047-.047,0.1-0.069,0.145a3.893,3.893,0,0,0-.182.469c0,0.012-.007.025-0.01,0.038a4,4,0,0,0-.111.487c-0.008.046-.015,0.091-0.021,0.139a4.033,4.033,0,0,0-.041.543v35.264a0.869,0.869,0,0,0-.009.145l0.009,0.512a2.276,2.276,0,0,1-1.959,2.26h0a1.365,1.365,0,0,1-.157-0.011,2.064,2.064,0,0,1-.327-0.07,0.133,0.133,0,0,1-.019,0,2.075,2.075,0,0,1-.292-0.123,2.476,2.476,0,0,1-1.253-1.726,2.323,2.323,0,0,1-.03-0.325V722.4h-1.75v0.088H663.872a0.879,0.879,0,0,0-.875.884v1.589a4.032,4.032,0,0,0,3.546,4.022c0.034,0,.067,0,0.1,0h1.693q8.4,0,14.25,0,5.085,0,11.79,0h1.694c0.034,0,.067,0,0.1,0a4.041,4.041,0,0,0,3.555-4.036l-0.007-.4a0.857,0.857,0,0,0,.007-0.113V689.044a2.234,2.234,0,0,1,.045-0.443c0.008-.045.025-0.085,0.036-0.129a2.176,2.176,0,0,1,.088-0.287c0.019-.046.044-0.089,0.065-0.133a2.173,2.173,0,0,1,.134-0.247c0.027-.042.058-0.079,0.087-0.119a2.4,2.4,0,0,1,.175-0.214c0.035-.038.073-0.071,0.111-0.105a2.422,2.422,0,0,1,.205-0.172l0.139-.09a2.418,2.418,0,0,1,.218-0.12c0.057-.026.116-0.051,0.175-0.073a2.613,2.613,0,0,1,.428-0.113,2.2,2.2,0,0,1,.355-0.037,2.274,2.274,0,0,1,2.261,2.282v2.56h-2.771v1.767h3.646a0.873,0.873,0,0,0,.743-0.422H706v-3.9A4.035,4.035,0,0,0,701.988,685Zm-37.24,39.97v-0.706h27.439v0.706a3.8,3.8,0,0,0,.038.514c0.009,0.071.02,0.139,0.032,0.209s0.033,0.152.052,0.229a4.067,4.067,0,0,0,.558,1.3H683.8c-10.539,0-16.214,0-16.906,0h-0.2A2.272,2.272,0,0,1,664.748,724.965Zm22.885-4.705a0.864,0.864,0,0,0,.9-0.054l1.712-1.193,1.712,1.193a0.867,0.867,0,0,0,.5.156,0.853,0.853,0,0,0,.407-0.1,0.883,0.883,0,0,0,.469-0.781V715.01a3.931,3.931,0,1,0-6.169,0v4.47A0.882,0.882,0,0,0,687.633,720.26Zm3.113-3.047a0.866,0.866,0,0,0-.994,0l-0.837.582v-1.51a3.82,3.82,0,0,0,2.668,0V717.8Zm-0.5-6.853a2.2,2.2,0,1,1-2.181,2.2A2.191,2.191,0,0,1,690.25,710.36Zm0.874,1.411h-1.75v1.767h1.75v-1.767Zm-13.135-20.366v1.765h11.279v-1.765H677.989Zm-3.859,6.206h19v-1.767h-19v1.767Zm0,4.37h19v-1.767h-19v1.767Zm0,4.37h19v-1.767h-19v1.767Zm0,4.37h11.292v-1.767H674.13v1.767Zm0,4.369h7.5v-1.768h-7.5v1.768Z" transform="translate(-663 -685)"/>
</svg>
