<svg xmlns="http://www.w3.org/2000/svg" width="59" height="59" viewBox="0 0 59 59">
  <metadata><?xpacket begin="﻿" id="W5M0MpCehiHzreSzNTczkc9d"?>
<x:xmpmeta xmlns:x="adobe:ns:meta/" x:xmptk="Adobe XMP Core 5.6-c138 79.159824, 2016/09/14-01:09:01        ">
   <rdf:RDF xmlns:rdf="http://www.w3.org/1999/02/22-rdf-syntax-ns#">
      <rdf:Description rdf:about=""/>
   </rdf:RDF>
</x:xmpmeta>
                                                                                                    
                                                                                                    
                                                                                                    
                                                                                                    
                                                                                                    
                                                                                                    
                                                                                                    
                                                                                                    
                                                                                                    
                                                                                                    
                                                                                                    
                                                                                                    
                                                                                                    
                                                                                                    
                                                                                                    
                                                                                                    
                                                                                                    
                                                                                                    
                                                                                                    
                                                                                                    
                           
<?xpacket end="w"?></metadata>
<defs>
    <style>
      .cls-1 {
        fill: #002061;
        fill-rule: evenodd;
      }
    </style>
  </defs>
  <path id="preims_6" class="cls-1" d="M1279.42,2435.16a5.969,5.969,0,0,0-4.23,1.74c-0.34.33-1.36,1.35-3.24,6.63-1.93,5.46-1.78,5.61-1.21,6.17l0.9,0.89,0.67-.66c2.15-.61,9.48-2.79,11.35-4.64a5.879,5.879,0,0,0,0-8.39A5.975,5.975,0,0,0,1279.42,2435.16Zm2.44,8.35h0c-0.9.9-4.91,2.36-8.38,3.44,0.88-2.77,2.5-7.27,3.51-8.27a3.465,3.465,0,0,1,4.87,0A3.392,3.392,0,0,1,1281.86,2443.51Zm45.34-36.66c0.08-.35.15-0.7,0.22-1.05,0.05-.25.1-0.5,0.14-0.76,0.07-.38.12-0.77,0.17-1.16,0.03-.23.06-0.45,0.08-0.68,0.05-.4.08-0.81,0.11-1.21,0.02-.23.03-0.45,0.04-0.67,0.01-.4.03-0.8,0.03-1.2,0-.25-0.01-0.51-0.01-0.76-0.01-.37-0.01-0.73-0.04-1.1-0.01-.34-0.05-0.67-0.08-1-0.02-.29-0.04-0.58-0.08-0.87-0.07-.63-0.16-1.26-0.28-1.89l-0.16-.86-0.86-.15c-0.64-.12-1.28-0.21-1.92-0.28-0.28-.04-0.56-0.06-0.84-0.08-0.35-.03-0.7-0.07-1.05-0.08s-0.72-.03-1.07-0.04c-0.27,0-.54-0.01-0.81-0.01-0.4,0-.79.02-1.18,0.03-0.24.01-.47,0.02-0.71,0.04-0.4.03-.8,0.06-1.2,0.1l-0.7.09c-0.39.05-.78,0.1-1.17,0.16l-0.77.15c-0.36.07-.71,0.13-1.06,0.21-0.31.07-.62,0.16-0.94,0.24-0.29.08-.58,0.15-0.88,0.23-0.06.02-.13,0.04-0.2,0.06l-2.54.76,0.13,0.09a30.693,30.693,0,0,0-12.26,8.72l-5.98,7.06a20.685,20.685,0,0,0-16.64,5.89,20.38,20.38,0,0,0-5.53,9.92l-0.16.72,0.54,0.49c1.45,1.32,2.99,2.74,4.72,4.37l0.99,0.92,5.02-5.93,13.09,12.96-5.97,4.96,0.93,0.98c1.75,1.82,3.41,3.58,4.94,5.23l0.5,0.54,0.72-.16a20.67,20.67,0,0,0,10.03-5.48,20.452,20.452,0,0,0,5.83-17.43l6.66-5.54a30.338,30.338,0,0,0,8.81-12.14l0.09,0.13,0.77-2.52,0.06-.21c0.08-.28.15-0.56,0.23-0.85C1327.04,2407.48,1327.13,2407.17,1327.2,2406.85Zm-1.77-6c-0.01.28-.02,0.56-0.04,0.83-0.01.23-.03,0.46-0.05,0.68-0.04.43-.08,0.85-0.14,1.28-0.03.27-.07,0.54-0.12,0.82-0.04.25-.08,0.5-0.13,0.75-0.02.12-.05,0.23-0.07,0.34a52.268,52.268,0,0,0-9.56-9.47c0.11-.02.23-0.05,0.34-0.07,0.25-.04.51-0.09,0.76-0.13,0.28-.05.57-0.08,0.86-0.12,0.41-.05.83-0.1,1.24-0.13l0.71-.06c0.28-.02.55-0.03,0.82-0.04,0.32-.01.64-0.01,0.96-0.01s0.61,0.01.91,0.02c0.37,0.01.74,0.03,1.11,0.05,0.18,0.02.37,0.03,0.55,0.05,0.52,0.05,1.04.1,1.56,0.18h0c0,0.01.01,0.02,0.01,0.03,0.07,0.5.13,1.01,0.18,1.51,0.01,0.19.03,0.38,0.04,0.57q0.045,0.525.06,1.05c0.01,0.32.02,0.65,0.02,0.97C1325.45,2400.25,1325.44,2400.55,1325.43,2400.85Zm-50.4,28.73c-1.14-1.07-2.2-2.05-3.21-2.97a17.91,17.91,0,0,1,4.67-8,18.152,18.152,0,0,1,12.28-5.25Zm9.58-6.78,13.29,13.16-2.88,2.4-12.83-12.71Zm18.1,21.77a18.136,18.136,0,0,1-8.08,4.63c-1.12-1.2-2.3-2.46-3.53-3.75l16.9-14.05A17.91,17.91,0,0,1,1302.71,2444.57Zm12.66-23.12-15.51,12.89-13.61-13.48,13.01-15.36a28.291,28.291,0,0,1,12.88-8.59,49.24,49.24,0,0,1,6.47,5.38,48.359,48.359,0,0,1,5.43,6.41A27.948,27.948,0,0,1,1315.37,2421.45Zm1.41-17.35a7.891,7.891,0,0,0-5.59-2.3h0a7.9,7.9,0,0,0-5.6,2.3,7.775,7.775,0,0,0,0,11.08,7.955,7.955,0,0,0,11.19,0h0A7.78,7.78,0,0,0,1316.78,2404.1Zm-1.8,9.3a5.415,5.415,0,0,1-7.59,0,5.287,5.287,0,0,1,0-7.52,5.362,5.362,0,0,1,3.8-1.55h0a5.356,5.356,0,0,1,3.79,1.55A5.276,5.276,0,0,1,1314.98,2413.4Z" transform="translate(-1269 -2393)"/>
</svg>
