<svg xmlns="http://www.w3.org/2000/svg" width="54" height="60" viewBox="0 0 54 60">
  <metadata><?xpacket begin="﻿" id="W5M0MpCehiHzreSzNTczkc9d"?>
<x:xmpmeta xmlns:x="adobe:ns:meta/" x:xmptk="Adobe XMP Core 5.6-c138 79.159824, 2016/09/14-01:09:01        ">
   <rdf:RDF xmlns:rdf="http://www.w3.org/1999/02/22-rdf-syntax-ns#">
      <rdf:Description rdf:about=""/>
   </rdf:RDF>
</x:xmpmeta>
                                                                                                    
                                                                                                    
                                                                                                    
                                                                                                    
                                                                                                    
                                                                                                    
                                                                                                    
                                                                                                    
                                                                                                    
                                                                                                    
                                                                                                    
                                                                                                    
                                                                                                    
                                                                                                    
                                                                                                    
                                                                                                    
                                                                                                    
                                                                                                    
                                                                                                    
                                                                                                    
                           
<?xpacket end="w"?></metadata>
<defs>
    <style>
      .cls-1 {
        fill: #002061;
        fill-rule: evenodd;
      }
    </style>
  </defs>
  <path id="preims_4" class="cls-1" d="M914.422,2156.42H916.4v1.37h2.551v-2.13a1.748,1.748,0,0,0-1.773-1.72h-3.53a1.749,1.749,0,0,0-1.774,1.72v2.13h2.551v-1.37ZM865,2209.99h29.847v-2.49h-27.3v-55.01h38.682v43.91h2.551V2150H865v59.99Zm31.237-.1,12.445-12.14H896.232v12.14Zm2.551-9.65h3.737l-3.737,3.64v-3.64Zm0.551-39.58h-18.8v2.49h18.8v-2.49Zm-18.8,6.99h18.8v-2.48h-18.8v2.48Zm-4.181-6.68-2.487,3.04-1.139-.71-1.383,2.09,3.078,1.93,3.925-4.79Zm4.181,15.61h18.8v-2.49h-18.8v2.49Zm0,4.51h18.8v-2.49h-18.8v2.49Zm-4.181-6.68-2.487,3.04-1.139-.72-1.384,2.09,3.078,1.94,3.926-4.8Zm4.181,15.61h18.8v-2.49h-18.8v2.49Zm0,4.5h18.8v-2.48h-18.8v2.48Zm-7.807-4.35-1.384,2.09,3.078,1.93,3.926-4.79-1.994-1.56-2.487,3.04Zm46.267-31.28h-7.162v30.87h0.049v0.1l3.536,7.6,3.535-7.6v-0.1h0.042v-30.87Zm-4.611,2.49h2.06v25.89h-2.06v-25.89Zm1.033,30.06-0.779-1.68h1.559Z" transform="translate(-865 -2150)"/>
</svg>
