<svg xmlns="http://www.w3.org/2000/svg" width="58" height="64" viewBox="0 0 58 64">
  <metadata><?xpacket begin="﻿" id="W5M0MpCehiHzreSzNTczkc9d"?>
<x:xmpmeta xmlns:x="adobe:ns:meta/" x:xmptk="Adobe XMP Core 5.6-c138 79.159824, 2016/09/14-01:09:01        ">
   <rdf:RDF xmlns:rdf="http://www.w3.org/1999/02/22-rdf-syntax-ns#">
      <rdf:Description rdf:about=""/>
   </rdf:RDF>
</x:xmpmeta>
                                                                                                    
                                                                                                    
                                                                                                    
                                                                                                    
                                                                                                    
                                                                                                    
                                                                                                    
                                                                                                    
                                                                                                    
                                                                                                    
                                                                                                    
                                                                                                    
                                                                                                    
                                                                                                    
                                                                                                    
                                                                                                    
                                                                                                    
                                                                                                    
                                                                                                    
                                                                                                    
                           
<?xpacket end="w"?></metadata>
<defs>
    <style>
      .cls-1 {
        fill: #002061;
        fill-rule: evenodd;
      }
    </style>
  </defs>
  <path id="preims_4" class="cls-1" d="M1327,2160.34v-0.03h0v-0.46a5.406,5.406,0,0,0-5.36-4.8h-3.34v7.63h-26.81v2.59h26.81v30.83h3.34a2.834,2.834,0,0,1,2.8,2.47v0.12a2.834,2.834,0,0,1-2.77,2.46l-2-.03v0.03h-45.28a4.913,4.913,0,0,0-.67.05,1.38,1.38,0,0,0-.2.03,4.1,4.1,0,0,0-.48.1c-0.06.01-.12,0.03-0.18,0.04a4.188,4.188,0,0,0-.59.22c-0.06.02-.11,0.05-0.16,0.07-0.14.07-.27,0.14-0.4,0.21a1.091,1.091,0,0,0-.11.06c0-5.46,0-16.19-.01-32.07v-2.15a2.832,2.832,0,0,1,2.8-2.44h7.51v-2.59h-7.51a5.4,5.4,0,0,0-5.35,4.8l-0.01.07v38.46a5.115,5.115,0,0,0-.03.56,5.42,5.42,0,0,0,5.39,5.43h5.75v-8.27h41.5c0.12,0,.23,0,0.34-0.01h0.26v-0.02a5.43,5.43,0,0,0,4.76-4.78v-0.46h0v-38.12Zm-49.43,49.07h-3.18a2.836,2.836,0,0,1-2.83-2.84,2.3,2.3,0,0,1,.05-0.45c0.01-.08.03-0.17,0.05-0.26l0.09-.27c0.03-.08.06-0.15,0.09-0.22a1.509,1.509,0,0,1,.15-0.28,1.629,1.629,0,0,1,.11-0.17,2.65,2.65,0,0,1,.21-0.26c0.04-.05.09-0.09,0.13-0.14a1.986,1.986,0,0,1,.27-0.22l0.14-.11c0.1-.06.21-0.12,0.31-0.17a0.8,0.8,0,0,0,.16-0.08c0.12-.04.24-0.08,0.36-0.11,0.05-.01.1-0.03,0.16-0.04a2.505,2.505,0,0,1,.55-0.06h3.18v5.68Zm44.07-15.89h-0.78v-35.89h0.78a2.841,2.841,0,0,1,2.8,2.45v0.25c0,0.85-.01,7.57,0,20.01v13.96A5.36,5.36,0,0,0,1321.64,2193.52Zm-20.82-7.32,2.7-1.57a4.932,4.932,0,0,0,2.19,1.27v3.13h2.57v-3.13a4.988,4.988,0,0,0,2.19-1.27l2.69,1.57,1.29-2.24-2.7-1.57a4.829,4.829,0,0,0,0-2.54l2.7-1.57-1.29-2.24-2.69,1.57a4.988,4.988,0,0,0-2.19-1.27v-3.14h-2.57v3.14a4.932,4.932,0,0,0-2.19,1.27l-2.7-1.57-1.28,2.24,2.7,1.57a4.829,4.829,0,0,0,0,2.54l-2.7,1.57Zm6.17-7.45a2.37,2.37,0,1,1-2.35,2.37A2.366,2.366,0,0,1,1306.99,2178.75Zm-22.21-16.46-3.47,12.05a17.787,17.787,0,0,1-2.73-1.04l-1.09,2.34a20.908,20.908,0,0,0,3.11,1.18l-3.48,12.11,2.46,0.72,3.53-12.25a20.965,20.965,0,0,0,6.83,0l3.52,12.25,2.47-.72-3.49-12.11a21.451,21.451,0,0,0,3.12-1.18l-1.1-2.34a17.4,17.4,0,0,1-2.73,1.04l-3.47-12.05a4.946,4.946,0,0,0-.46-9.39v-4.91h-2.56v4.91A4.946,4.946,0,0,0,1284.78,2162.29Zm-0.95,12.61,2.69-9.37,2.7,9.37A18.721,18.721,0,0,1,1283.83,2174.9Zm2.69-19.6a2.364,2.364,0,0,1,2.35,2.37,2.34,2.34,0,0,1-1.33,2.12l-1.02-3.54-1.02,3.54A2.364,2.364,0,0,1,1286.52,2155.3Z" transform="translate(-1269 -2148)"/>
</svg>
