<svg xmlns="http://www.w3.org/2000/svg" width="63" height="59" viewBox="0 0 63 59">
  <metadata><?xpacket begin="﻿" id="W5M0MpCehiHzreSzNTczkc9d"?>
<x:xmpmeta xmlns:x="adobe:ns:meta/" x:xmptk="Adobe XMP Core 5.6-c138 79.159824, 2016/09/14-01:09:01        ">
   <rdf:RDF xmlns:rdf="http://www.w3.org/1999/02/22-rdf-syntax-ns#">
      <rdf:Description rdf:about=""/>
   </rdf:RDF>
</x:xmpmeta>
                                                                                                    
                                                                                                    
                                                                                                    
                                                                                                    
                                                                                                    
                                                                                                    
                                                                                                    
                                                                                                    
                                                                                                    
                                                                                                    
                                                                                                    
                                                                                                    
                                                                                                    
                                                                                                    
                                                                                                    
                                                                                                    
                                                                                                    
                                                                                                    
                                                                                                    
                                                                                                    
                           
<?xpacket end="w"?></metadata>
<defs>
    <style>
      .cls-1 {
        fill: #002061;
        fill-rule: evenodd;
      }
    </style>
  </defs>
  <path id="preims_5" class="cls-1" d="M927.975,2434.28v-34.41a2.953,2.953,0,0,0-2.936-2.96H901.3v2.59h23.74a0.375,0.375,0,0,1,.375.37v34.41H867.571v-34.41a0.374,0.374,0,0,1,.373-0.37h9.506v-2.59h-9.506a2.953,2.953,0,0,0-2.935,2.96v37.03h0v3.82a3.505,3.505,0,0,0,3.257,3.39h20.2c0,0.26,0,.53.008,0.8a20.3,20.3,0,0,1-.107,3.21,4.73,4.73,0,0,1-.159.65c-0.059.03-.128,0.07-0.208,0.11l-0.085.05c-0.2.11-.553,0.28-0.971,0.47h-1.62v2.59h20.1s0,0,.008.01l0-.01h2.238v-2.59h-1.707a10.494,10.494,0,0,1-1.018-.5,1.71,1.71,0,0,1-.2-0.11,5.59,5.59,0,0,1-.158-0.67,19.738,19.738,0,0,1-.107-3.16c0-.29.006-0.58,0.007-0.85h20.658a3.079,3.079,0,0,0,2.841-3.3v-6.53h-0.019Zm-25.892,14.34c0.059,0.31.119,0.56,0.184,0.78H890.7a7.091,7.091,0,0,0,.191-0.78,20.674,20.674,0,0,0,.156-3.74c0-.27-0.007-0.53-0.008-0.77h10.9c0,0.26,0,.53-0.008.82A20.146,20.146,0,0,0,902.083,2448.62Zm23.07-7.1H868.271a1.055,1.055,0,0,1-.695-0.8v-3.82h57.857v3.91A0.827,0.827,0,0,1,925.153,2441.52Zm-42.894-38.02h4.866l1.584,2.77h-4.362v22.45h-2.358v-9.57H871.84v9.57h-1.162v2.59h51.648v-2.59h-2.808v-27.64h-10.15v27.64h-2.359v-16.37H896.856v16.37H894.5v-22.45h-4.723l1.586-2.77h4.868a2.309,2.309,0,0,0,2.294-2.32v-5.87a2.309,2.309,0,0,0-2.294-2.32H882.259a2.31,2.31,0,0,0-2.295,2.32v5.87A2.31,2.31,0,0,0,882.259,2403.5Zm-7.858,25.22v-6.98h5.027v6.98H874.4Zm37.528-25.05h5.028v25.05h-5.028v-25.05Zm-12.512,11.27h5.031v13.78h-5.031v-13.78Zm-7.478,13.78h-5.03v-19.86h5.03v19.86Zm-9.414-33.14h13.439v5.33H889.88l-0.636,1.12-0.639-1.12h-6.08v-5.33Zm10.488,1.42h-7.538v2.59h7.538V2397Z" transform="translate(-865 -2393)"/>
</svg>
