<svg xmlns="http://www.w3.org/2000/svg" viewBox="0 0 67 58.99" width="67" height="59">
  <defs>
    <style>
      .a {
        fill: #002061;
      }
    </style>
  </defs>
  <title>preims_2</title>
  <path class="a" d="M19.91,36.91H47.09V24l-6.39,3.86-7.2-6.14-7.2,6.14L19.91,24Zm2.51-8.51,4.14,2.5L33.5,25l6.94,5.93,4.14-2.5v6H22.42Zm-12.65-2A24.22,24.22,0,0,1,18.15,9.67,7.44,7.44,0,0,0,23,7.48,7.31,7.31,0,0,0,25,1.1L24.85.21,24,.08a7.47,7.47,0,0,0-6.39,2.14,7.32,7.32,0,0,0-2,6.38v0c-.47.45-.92.91-1.35,1.38a7.19,7.19,0,0,0-3.44-5L10,4.59l-.68.59a7.15,7.15,0,0,0-2.44,6.05h0a7.16,7.16,0,0,0,3,5.15A26.55,26.55,0,0,0,8.29,20.5a7.26,7.26,0,0,0-5.42-3.33L2,17.09l-.37.82A7.12,7.12,0,0,0,2,24.42,7.24,7.24,0,0,0,7.2,27.88a26.88,26.88,0,0,0,.35,4.59l-.17-.13a7.32,7.32,0,0,0-6.52-.86l-.86.3,0,.9a7.17,7.17,0,0,0,3.11,5.74,7.3,7.3,0,0,0,6.51.86A26.88,26.88,0,0,0,12,43.48c-.21-.06-.41-.11-.62-.15a7.3,7.3,0,0,0-6.28,2l-.65.63.4.81a7.25,7.25,0,0,0,5.27,3.9h0a7.3,7.3,0,0,0,6.28-2l.17-.17a27,27,0,0,0,4.14,2.91,7.14,7.14,0,0,0-1,.19A7.23,7.23,0,0,0,14.92,56l-.32.84.71.57A7.32,7.32,0,0,0,19.85,59a7.22,7.22,0,0,0,1.9-.25h0a7.23,7.23,0,0,0,4.86-4.4l.15-.39a28,28,0,0,0,2.95.68l.43-2.45A24.44,24.44,0,0,1,9.77,26.39Zm9.6-22.44h0A4.92,4.92,0,0,1,22.6,2.5a4.83,4.83,0,0,1-1.38,3.24A4.92,4.92,0,0,1,18,7.19,4.84,4.84,0,0,1,19.37,3.95ZM9.38,11a4.65,4.65,0,0,1,.92-3.23A4.62,4.62,0,0,1,10.89,14,4.67,4.67,0,0,1,9.38,11ZM6.79,25.25a4.7,4.7,0,0,1-2.65-2.09,4.64,4.64,0,0,1-.54-3.31,4.71,4.71,0,0,1,2.65,2.09A4.64,4.64,0,0,1,6.79,25.25ZM4.56,36.38A4.62,4.62,0,0,1,2.65,33.6a4.77,4.77,0,0,1,3.3.79,4.68,4.68,0,0,1,1.91,2.78A4.77,4.77,0,0,1,4.56,36.38Zm6,11.8a4.67,4.67,0,0,1-2.91-1.72,4.73,4.73,0,0,1,6.24,1.05A4.77,4.77,0,0,1,10.59,48.17Zm13.22,6.17A4.73,4.73,0,0,1,17.71,56a4.72,4.72,0,0,1,6.1-1.65ZM49.43,2.21h0ZM66.14,31.48a7.31,7.31,0,0,0-6.52.86l-.17.13a26.85,26.85,0,0,0,.35-4.59A7.25,7.25,0,0,0,65,24.42a7.13,7.13,0,0,0,.37-6.51L65,17.09l-.91.09A7.26,7.26,0,0,0,58.7,20.5a26.5,26.5,0,0,0-1.59-4.12,7.17,7.17,0,0,0,3-5.15h0a7.16,7.16,0,0,0-2.44-6.05L57,4.59,56.21,5a7.19,7.19,0,0,0-3.44,5c-.43-.47-.88-.94-1.35-1.38v0a7.32,7.32,0,0,0-2-6.38A7.48,7.48,0,0,0,43,.08l-.9.13L42,1.1a7.31,7.31,0,0,0,2,6.38,7.46,7.46,0,0,0,4.87,2.19,24.38,24.38,0,0,1-12,42.51l.43,2.45a27.33,27.33,0,0,0,2.95-.68l.15.39A7.22,7.22,0,0,0,47.14,59a7.31,7.31,0,0,0,4.55-1.58l.71-.56L52.08,56a7.14,7.14,0,0,0-5.84-4.58,27.07,27.07,0,0,0,4.14-2.91l.17.17A7.26,7.26,0,0,0,62.1,46.72l.4-.81-.65-.63a7.29,7.29,0,0,0-6.28-2c-.21,0-.42.09-.62.14a26.87,26.87,0,0,0,2.41-4.19,7.3,7.3,0,0,0,6.51-.86A7.17,7.17,0,0,0,67,32.68l0-.9Zm-5.38-9.54a4.71,4.71,0,0,1,2.65-2.09,4.65,4.65,0,0,1-.54,3.31,4.72,4.72,0,0,1-2.65,2.09A4.65,4.65,0,0,1,60.75,21.94Zm-15-16.2A4.83,4.83,0,0,1,44.39,2.5a4.92,4.92,0,0,1,3.24,1.45h0A4.77,4.77,0,0,1,49,7.19,4.92,4.92,0,0,1,45.78,5.74Zm9.4,5a4.67,4.67,0,0,1,1.51-3A4.66,4.66,0,0,1,57.61,11a4.6,4.6,0,0,1-1.51,3A4.66,4.66,0,0,1,55.18,10.78ZM46.56,54a4.72,4.72,0,0,1,2.73,2,4.78,4.78,0,0,1-3.37.34,4.73,4.73,0,0,1-2.73-2A4.76,4.76,0,0,1,46.56,54ZM56,45.78a4.77,4.77,0,0,1,3.32.67,4.74,4.74,0,0,1-2.91,1.72h0a4.76,4.76,0,0,1-3.32-.67A4.74,4.74,0,0,1,56,45.78Zm6.44-9.41a4.71,4.71,0,0,1-3.3.79A4.69,4.69,0,0,1,61,34.38a4.76,4.76,0,0,1,3.3-.79A4.69,4.69,0,0,1,62.43,36.38Z"/>
</svg>
