<svg xmlns="http://www.w3.org/2000/svg" viewBox="0 0 66 63.99" width="66" height="64">
  <defs>
    <style>
      .a {
        fill: #002061;
      }
    </style>
  </defs>
  <title>preims_1</title>
  <path class="a" d="M6.4,64V54.15H0V25.95H38.33v28.2H16.7ZM2.75,51.41h6.4v6.16l6.44-6.16h20V28.68H2.75ZM29.06,37.84H9.27V35.1h19.8Zm0,6.65H9.27V41.75h19.8ZM43,45.78V43a20.15,20.15,0,0,0,12.62-4.38l.54-.43,3.11.83L58.4,36l.43-.54a19.87,19.87,0,0,0,4.41-12.54,20.29,20.29,0,0,0-40.58,0H19.92a23,23,0,0,1,46.08,0,22.54,22.54,0,0,1-4.58,13.69l1.71,6.35-6.39-1.7A22.88,22.88,0,0,1,43,45.78ZM29.09,22.89H26.34a16.4,16.4,0,0,1,6.33-13l1.71,2.14A13.68,13.68,0,0,0,29.09,22.89Zm19.12-12.8H44.56A5.91,5.91,0,0,0,38.63,16v1.44h2.75V16a3.17,3.17,0,0,1,3.17-3.15h3.65A3.17,3.17,0,0,1,51.38,16v3.08c0,1-1.05,1.82-1.93,2.37l-.44.35,0,0-3.18,2.59c-2.08,1.33-3.14,2.89-3.14,4.63v3.08h2.75V29c0-1,1.05-1.81,1.93-2.37l.44-.36,0,0L51,23.69c2.08-1.33,3.14-2.89,3.14-4.63V16A5.91,5.91,0,0,0,48.21,10.09ZM45.43,38.5H42.68V35h2.75Z"/>
</svg>
