<svg xmlns="http://www.w3.org/2000/svg" viewBox="0 0 30 44" width="30" height="44">
  <defs>
    <style>
      .cls-1 {
        fill: #cde4f8;
      }
    </style>
  </defs>
  <title>trigger_1</title>
  <g id="Layer_2" data-name="Layer 2">
    <g id="Layer_1-2" data-name="Layer 1">
      <path class="cls-1" d="M29.08,0H.92A.92.92,0,0,0,0,.92v4.4a.92.92,0,0,0,.92.92H29.08A.92.92,0,0,0,30,5.32V.92A.92.92,0,0,0,29.08,0Zm-.92,4.4H1.85V1.83H28.15Zm.92,33.36h-3.4V26.43a.92.92,0,0,0-.49-.81l-6.95-3.67,6.95-3.67a.92.92,0,0,0,.49-.81V7.7a.92.92,0,0,0-1.85,0V13c-1.33.43-2.78.83-4.34,1.17l-.26.06A35.31,35.31,0,0,0,15,15.53a35.18,35.18,0,0,0-4.23-1.3l-.26-.06c-1.55-.35-3-.74-4.34-1.17V7.7a.92.92,0,0,0-1.85,0v5.43a.89.89,0,0,0-.09.18.91.91,0,0,0,.09.79v3.37a.92.92,0,0,0,.49.81l6.95,3.67L4.82,25.62a.92.92,0,0,0-.49.81V37.76H.92a.92.92,0,0,0-.92.92v4.4A.92.92,0,0,0,.92,44H29.08a.92.92,0,0,0,.92-.92v-4.4A.92.92,0,0,0,29.08,37.76ZM6.17,27l8-4.22a.92.92,0,0,0,0-1.62l-8-4.22v-2c1.23.38,2.54.73,3.93,1l.24.05a32.5,32.5,0,0,1,4.32,1.35.93.93,0,0,0,.69,0A32.56,32.56,0,0,1,19.66,16L19.9,16c1.39-.31,2.7-.65,3.93-1v2l-8,4.22a.91.91,0,0,0,0,1.62l8,4.22V37.76h-.64A11.21,11.21,0,0,0,17.34,30l-.08,0a8.87,8.87,0,0,1-1.34-1V27.63a.92.92,0,0,0-1.85,0V29a8.79,8.79,0,0,1-1.33,1l-.08,0a11.2,11.2,0,0,0-5.85,7.75H6.17ZM21.3,37.76H8.7a9.51,9.51,0,0,1,4.9-6.17l.12-.07A11,11,0,0,0,15,30.6a11.09,11.09,0,0,0,1.32.94l.11.06A9.5,9.5,0,0,1,21.3,37.76Zm6.85,4.4H1.85V39.6H4.6a.93.93,0,0,0,1.3,0H7.09a.92.92,0,0,0,.45.16h.07a.92.92,0,0,0,.52-.16H21.88a.91.91,0,0,0,1,0H24.1a.93.93,0,0,0,1.3,0h2.75ZM.92,37.11a.92.92,0,0,0,.92-.92V7.8A.92.92,0,0,0,0,7.8V36.2A.92.92,0,0,0,.92,37.11ZM29.08,6.78a.92.92,0,0,0-.92.92V36.09a.92.92,0,0,0,1.85,0V7.7A.92.92,0,0,0,29.08,6.78Zm-13.15,19V24a.92.92,0,0,0-1.85,0V25.8a.92.92,0,0,0,1.85,0Z"/>
    </g>
  </g>
</svg>
