<svg xmlns="http://www.w3.org/2000/svg" viewBox="0 0 39 39" width="39" height="39">
  <defs>
    <style>
      .cls-1 {
        fill: #cde4f8;
      }
    </style>
  </defs>
  <title>trigger_3</title>
  <g id="Layer_2" data-name="Layer 2">
    <g id="Layer_1-2" data-name="Layer 1">
      <path class="cls-1" d="M33.83,35.66l.35-.39.34-.33.59-.58a5.58,5.58,0,0,0,.56-.65,3.87,3.87,0,0,0,.41-.72,2.08,2.08,0,0,0,.18-.83,2.24,2.24,0,0,0-.62-1.66,2.54,2.54,0,0,0-1.86-.62,3.34,3.34,0,0,0-1.33.27,3.63,3.63,0,0,0-1.07.7l-.25.23,1,1.47.33-.32.17-.15.27-.18a1.72,1.72,0,0,1,.33-.15,1,1,0,0,1,.86.08.47.47,0,0,1,.13.4.69.69,0,0,1-.06.29,1.67,1.67,0,0,1-.21.34,3.82,3.82,0,0,1-.34.38l-.44.43-.6.59a5.39,5.39,0,0,0-.58.68,3.63,3.63,0,0,0-.44.81,2.73,2.73,0,0,0-.18,1v.17a2,2,0,0,0,0,.24l0,.34h5V35.72H33.78ZM19.5,0a19.5,19.5,0,1,0,9.15,36.71l.42-.23-.31-.37A5.37,5.37,0,0,1,28,34.88l-.17-.38-.37.19a17.15,17.15,0,1,1,9.2-15.2,16.94,16.94,0,0,1-1.86,7.75l-.19.37.38.17a5.32,5.32,0,0,1,1.24.76l.37.3.22-.43A19.25,19.25,0,0,0,39,19.5,19.52,19.52,0,0,0,19.5,0ZM14.8,11H12V28h2V14c.49.56,8.87,13.43,9.2,14H26V11H24V24C23.46,23.1,15.69,11.93,14.8,11Z"/>
    </g>
  </g>
</svg>
