<svg xmlns="http://www.w3.org/2000/svg" viewBox="0 0 39.04 39" width="39" height="39">
  <defs>
    <style>
      .cls-1 {
        fill: #cde4f8;
      }
    </style>
  </defs>
  <title>trigger_2</title>
  <g id="Layer_2" data-name="Layer 2">
    <g id="Layer_1-2" data-name="Layer 1">
      <path class="cls-1" d="M25.37,19.07h0L25.29,19l5.44-5.44a6.86,6.86,0,0,0,7.9-9.07.88.88,0,0,0-1.45-.32L33.93,7.42l-1.81-.49-.49-1.81,3.24-3.24A.88.88,0,0,0,34.55.42a6.86,6.86,0,0,0-9.07,7.9l-6.4,6.4A.88.88,0,0,0,20.34,16l6.75-6.75a.89.89,0,0,0,.22-.88,5.09,5.09,0,0,1,5.16-6.56L30,4.23a.88.88,0,0,0-.23.85l.75,2.8a.88.88,0,0,0,.63.63l2.8.75A.88.88,0,0,0,34.82,9l2.45-2.45a5.08,5.08,0,0,1-6.56,5.16.88.88,0,0,0-.88.22L23,18.74l-1.33-1.33a.88.88,0,0,0-1.25,0l-1.32,1.32L6.92,6.51a.8.8,0,0,0,0-.09L6.67,3.93a.89.89,0,0,0-.4-.66L2.66,1a.88.88,0,0,0-1.1.12L.26,2.4A.88.88,0,0,0,.14,3.5L2.43,7.1a.88.88,0,0,0,.65.4l2.49.26h.09L17.9,20l-1.32,1.32a.88.88,0,0,0,0,1.25l1.33,1.33L12,29.79a.88.88,0,0,0-.22.88,5.09,5.09,0,0,1-5.16,6.56l2.45-2.45a.89.89,0,0,0,.23-.85l-.75-2.8a.89.89,0,0,0-.62-.62l-2.8-.75a.88.88,0,0,0-.85.23L1.82,32.43a5.08,5.08,0,0,1,6.56-5.16A.89.89,0,0,0,9.26,27l6-6A.88.88,0,0,0,14,19.79L8.37,25.44a6.86,6.86,0,0,0-7.9,9.07.88.88,0,0,0,1.45.32l3.24-3.24L7,32.08l.49,1.81L4.22,37.13a.88.88,0,0,0,.32,1.46,6.86,6.86,0,0,0,9.07-7.9l4.55-4.55.07.08L30.11,38.09a1.69,1.69,0,0,0,2.39,0l4.75-4.75a1.7,1.7,0,0,0,0-2.39ZM4.45,5.28a.88.88,0,0,0-.25.56l-.5-.05L2,3.15l.3-.3L4.95,4.53,5,5A.87.87,0,0,0,4.45,5.28Zm14,16.65,1.15-1.15a.79.79,0,0,0,.35-.35l1.15-1.15.9.9-2.65,2.65ZM31.3,36.78,19.6,25.08l4.64-4.64,11.7,11.7ZM23.16,24a.88.88,0,0,0,0,1.25l7.91,7.91a.88.88,0,0,0,1.25-1.25L24.41,24A.88.88,0,0,0,23.16,24Z"/>
    </g>
  </g>
</svg>
