<svg xmlns="http://www.w3.org/2000/svg" viewBox="0 0 45 37.01" width="45" height="37">
  <defs>
    <style>
      .cls-1 {
        fill: #cde4f8;
      }
    </style>
  </defs>
  <title>trigger_4</title>
  <g id="Layer_2" data-name="Layer 2">
    <g id="Layer_1-2" data-name="Layer 1">
      <path class="cls-1" d="M17.87,19h1.83a.92.92,0,0,0,0-1.84H17.87a.92.92,0,0,0,0,1.84Zm7.31,0H27a.92.92,0,0,0,0-1.84H25.18a.92.92,0,0,0,0,1.84Zm-3.65,0h1.83a.92.92,0,0,0,0-1.84H21.52a.92.92,0,0,0,0,1.84ZM44.08,5.17H.91A.92.92,0,0,0,0,6.09v30A.92.92,0,0,0,.91,37H44.08a.92.92,0,0,0,.91-.92v-30A.92.92,0,0,0,44.08,5.17ZM32.07,7h1.84v9H32.07Zm-21,0h1.85v9H11.08ZM9.25,35.17H1.83V19.74a6.14,6.14,0,0,0,4.86,2.2H8.15v2.77a1.66,1.66,0,0,0,1.1,1.56Zm0-19a1.66,1.66,0,0,0-1.1,1.56V20.1H6.68c-3.54,0-4.8-3-4.8-5.9V8.11a.92.92,0,0,0-.05-.3V7H9.25Zm3.67,19H11.08V26.38h1.85ZM14,20.81A.9.9,0,0,0,14,21a.88.88,0,0,0,0,.21v3.12l-.19,0a.9.9,0,0,0-.57.21h-.35v-2a.91.91,0,1,0-1.83,0v2h-.35a.9.9,0,0,0-.57-.21l-.19,0V17.87H14ZM30.25,35.17H14.75V26.28a1.66,1.66,0,0,0,1.1-1.56V21.94H29.14v2.77a1.66,1.66,0,0,0,1.1,1.56Zm0-19a1.66,1.66,0,0,0-1.1,1.56V20.1H15.85V17.69a1.66,1.66,0,0,0-1.1-1.56V7h15.5Zm3.67,19H32.07V26.38h1.84ZM35,24.35l-.19,0a.91.91,0,0,0-.57.21h-.35v-2a.91.91,0,1,0-1.83,0v2h-.35a.9.9,0,0,0-.57-.21l-.19,0V21.23A.92.92,0,0,0,31,21a.94.94,0,0,0,0-.21V17.87H35Zm8.15,10.82H35.75V26.28a1.66,1.66,0,0,0,1.1-1.56V21.94h1.46a6.13,6.13,0,0,0,4.86-2.21Zm0-27.41a.9.9,0,0,0-.05.3v6.1c0,2.87-1.26,5.94-4.8,5.94H36.85V17.69a1.66,1.66,0,0,0-1.1-1.56V7h7.42ZM16.71,4.83a.92.92,0,0,0,.91-.92V1.84h9.75V3.91a.91.91,0,1,0,1.83,0v-3A.92.92,0,0,0,28.28,0H16.71a.92.92,0,0,0-.91.92v3A.92.92,0,0,0,16.71,4.83Z"/>
    </g>
  </g>
</svg>
