<svg xmlns="http://www.w3.org/2000/svg" viewBox="0 0 227.51 607.25">
  <defs>
    <style>
      .cls-1 {
        fill: none;
        stroke: #1abbee;
        stroke-linecap: round;
        stroke-miterlimit: 22.93;
        stroke-width: 3px;
      }
    </style>
  </defs>
  <title>video-lines</title>
  <g id="Layer_2" data-name="Layer 2">
    <g id="_1" data-name="1">
      <g>
        <path class="cls-1" d="M0,443.75" transform="translate(-6.88)"/>
        <path class="cls-1" d="M8.38,605.75,18,427.32" transform="translate(-6.88)"/>
        <path class="cls-1" d="M22.54,586,36.18,412.12" transform="translate(-6.88)"/>
        <path class="cls-1" d="M36.62,567.34,54.28,397.93" transform="translate(-6.88)"/>
        <path class="cls-1" d="M50.52,549.48l21.66-164.9" transform="translate(-6.88)"/>
        <path class="cls-1" d="M64.13,532.32,89.79,371.93" transform="translate(-6.88)"/>
        <path class="cls-1" d="M77.47,515.8l29.67-155.88" transform="translate(-6.88)"/>
        <path class="cls-1" d="M90.55,499.9l33.67-151.37" transform="translate(-6.88)"/>
        <path class="cls-1" d="M103.26,484.44l37.68-146.86" transform="translate(-6.88)"/>
        <path class="cls-1" d="M115.2,468.93l41.68-142.35" transform="translate(-6.88)"/>
        <path class="cls-1" d="M125.67,452.7l45.68-137.84" transform="translate(-6.88)"/>
        <path class="cls-1" d="M134.62,435.84l49.69-133.33" transform="translate(-6.88)"/>
        <path class="cls-1" d="M142,418.45l53.69-128.82" transform="translate(-6.88)"/>
        <path class="cls-1" d="M147.7,400.61,205.4,276.3" transform="translate(-6.88)"/>
        <path class="cls-1" d="M151.63,382.44l61.7-119.8" transform="translate(-6.88)"/>
        <path class="cls-1" d="M154,364.19,219.73,248.9" transform="translate(-6.88)"/>
        <path class="cls-1" d="M155,346l69.71-110.78" transform="translate(-6.88)"/>
        <path class="cls-1" d="M154.63,328l73.72-106.27" transform="translate(-6.88)"/>
        <path class="cls-1" d="M153.11,310.18l77.72-101.76" transform="translate(-6.88)"/>
        <path class="cls-1" d="M150.57,292.73l81.73-97.26" transform="translate(-6.88)"/>
        <path class="cls-1" d="M147.16,275.66l85.73-92.75" transform="translate(-6.88)"/>
        <path class="cls-1" d="M143,259l89.74-88.24" transform="translate(-6.88)"/>
        <path class="cls-1" d="M138.23,242.69,232,159" transform="translate(-6.88)"/>
        <path class="cls-1" d="M133,226.81,230.7,147.6" transform="translate(-6.88)"/>
        <path class="cls-1" d="M127.25,211.32,229,136.62" transform="translate(-6.88)"/>
        <path class="cls-1" d="M121.22,196.2,227,126" transform="translate(-6.88)"/>
        <path class="cls-1" d="M114.91,181.43l109.76-65.69" transform="translate(-6.88)"/>
        <path class="cls-1" d="M108.38,167l113.77-61.18" transform="translate(-6.88)"/>
        <path class="cls-1" d="M101.58,152.91,219.35,96.25" transform="translate(-6.88)"/>
        <path class="cls-1" d="M94.64,139.14,216.42,87" transform="translate(-6.88)"/>
        <path class="cls-1" d="M87.6,125.64,213.38,78" transform="translate(-6.88)"/>
        <path class="cls-1" d="M80.44,112.43,210.23,69.29" transform="translate(-6.88)"/>
        <path class="cls-1" d="M73.17,99.49,207,60.86" transform="translate(-6.88)"/>
        <path class="cls-1" d="M65.87,86.79l137.8-34.12" transform="translate(-6.88)"/>
        <path class="cls-1" d="M58.5,74.34,200.3,44.73" transform="translate(-6.88)"/>
        <path class="cls-1" d="M51.08,62.12,196.89,37" transform="translate(-6.88)"/>
        <path class="cls-1" d="M43.68,50.1,193.49,29.51" transform="translate(-6.88)"/>
        <path class="cls-1" d="M36.21,38.32,190,22.23" transform="translate(-6.88)"/>
        <path class="cls-1" d="M28.78,26.7,186.6,15.13" transform="translate(-6.88)"/>
        <path class="cls-1" d="M21.3,15.3,183.13,8.23" transform="translate(-6.88)"/>
        <line class="cls-1" x1="6.98" y1="4.05" x2="172.81" y2="1.5"/>
      </g>
    </g>
  </g>
</svg>
